<?xml version="1.0" encoding="UTF-8" standalone="no"?>
<!-- Created with Inkscape (http://www.inkscape.org/) -->

<svg
  viewBox="0 0 179.789 26.081093"
  version="1.1"
  id="svg5"
  xml:space="preserve"
  sodipodi:docname="drawing.svg"
  inkscape:version="1.2.1 (9c6d41e, 2022-07-14)"
  xmlns:inkscape="http://www.inkscape.org/namespaces/inkscape"
  xmlns:sodipodi="http://sodipodi.sourceforge.net/DTD/sodipodi-0.dtd"
  xmlns="http://www.w3.org/2000/svg"
  xmlns:svg="http://www.w3.org/2000/svg"><sodipodi:namedview
   id="namedview7"
   pagecolor="#ffffff"
   bordercolor="#666666"
   borderopacity="1.0"
   inkscape:showpageshadow="2"
   inkscape:pageopacity="0.0"
   inkscape:pagecheckerboard="0"
   inkscape:deskcolor="#d1d1d1"
   inkscape:document-units="mm"
   showgrid="false"
   inkscape:zoom="1.5643378"
   inkscape:cx="260.81323"
   inkscape:cy="-120.81789"
   inkscape:window-width="1920"
   inkscape:window-height="1056"
   inkscape:window-x="1920"
   inkscape:window-y="24"
   inkscape:window-maximized="1"
   inkscape:current-layer="layer1" /><defs
   id="defs2" /><g
   inkscape:label="Layer 1"
   inkscape:groupmode="layer"
   id="layer1"
   transform="translate(-85.242744,-138.57377)"><g
    id="g544"><path
     style="fill:#000000;stroke-width:0.352778"
     d="m 137.14511,156.94555 c -2.31853,-1.05113 -3.66957,-3.97079 -2.99562,-6.47365 0.69278,-2.57276 3.19062,-3.95879 6.36667,-3.53279 0.76162,0.10216 1.5251,0.0129 1.74154,-0.20349 0.27867,-0.27867 0.38539,0.0249 0.38539,1.09627 0,0.81492 -0.15875,1.48167 -0.35278,1.48167 -0.19403,0 -0.35278,-0.22913 -0.35278,-0.50916 0,-0.77434 -1.42607,-1.6075 -2.75146,-1.6075 -2.43853,0 -3.95367,2.75213 -3.43163,6.23331 0.5582,3.72236 4.3329,4.92266 6.61622,2.10386 0.46813,-0.5779 0.61134,-0.62488 0.61736,-0.20252 0.004,0.30246 -0.20649,0.84305 -0.46845,1.20131 -0.62515,0.85494 -3.85238,1.10275 -5.37446,0.41269 z m 12.5264,-0.5493 c -0.76345,-0.76345 -1.0312,-1.36588 -1.0312,-2.32019 0,-1.58917 1.57167,-3.35139 2.989,-3.35139 1.46919,0 2.89482,0.93102 3.32788,2.1733 1.17604,3.37357 -2.78729,5.99667 -5.28568,3.49828 z m 3.7113,-0.10563 c 0.30204,-0.43123 0.54917,-1.42778 0.54917,-2.21456 0,-1.74488 -0.80906,-2.99861 -1.93509,-2.99861 -1.57145,0 -2.61566,1.85686 -2.13261,3.79236 0.53525,2.14469 2.46554,2.92416 3.51853,1.42081 z m 4.08936,0.45446 c -0.20086,-0.3753 -0.36519,-1.72467 -0.36519,-2.99861 0,-1.92664 -0.0989,-2.31625 -0.58796,-2.31625 -0.78884,0 -0.50756,-0.20228 0.67615,-0.48626 l 0.97014,-0.23273 v 2.84001 c 0,3.13019 0.30796,3.56949 2.06975,2.95255 0.85171,-0.29824 0.9376,-0.50823 1.03402,-2.52812 0.0958,-2.00722 0.035,-2.22882 -0.68526,-2.49525 -0.77533,-0.28681 -0.77198,-0.29703 0.17564,-0.53487 0.53134,-0.13336 1.09402,-0.1634 1.25039,-0.0668 0.15637,0.0966 0.20773,1.36895 0.11413,2.82736 -0.1626,2.53374 -0.13328,2.66529 0.65954,2.95857 0.79369,0.29361 0.78037,0.31417 -0.30675,0.47373 -0.83174,0.12207 -1.13646,0.0304 -1.13646,-0.34184 0,-0.42648 -0.14046,-0.41661 -0.86953,0.0611 -1.18374,0.77561 -2.55072,0.72427 -2.99861,-0.11263 z m 22.35906,0.20047 c -2.31853,-1.05113 -3.66957,-3.97079 -2.99562,-6.47365 0.69277,-2.57276 3.19062,-3.95879 6.36667,-3.53279 0.76161,0.10216 1.5251,0.0129 1.74154,-0.20349 0.27867,-0.27867 0.38539,0.0249 0.38539,1.09627 0,0.81492 -0.15875,1.48167 -0.35278,1.48167 -0.19403,0 -0.35278,-0.22913 -0.35278,-0.50916 0,-0.77434 -1.42607,-1.6075 -2.75146,-1.6075 -2.43853,0 -3.95367,2.75213 -3.43163,6.23331 0.5582,3.72236 4.3329,4.92266 6.61622,2.10386 0.46812,-0.5779 0.61134,-0.62488 0.61736,-0.20252 0.004,0.30246 -0.20649,0.84305 -0.46845,1.20131 -0.62515,0.85494 -3.85238,1.10275 -5.37446,0.41269 z m 7.97983,-0.20047 c -0.20085,-0.3753 -0.36518,-1.72467 -0.36518,-2.99861 0,-1.92664 -0.0989,-2.31625 -0.58797,-2.31625 -0.78884,0 -0.50755,-0.20228 0.67616,-0.48626 l 0.97014,-0.23273 v 2.84001 c 0,3.13019 0.30795,3.56949 2.06975,2.95255 0.85171,-0.29824 0.93759,-0.50823 1.03402,-2.52812 0.0958,-2.00722 0.035,-2.22882 -0.68527,-2.49525 -0.77533,-0.28681 -0.77197,-0.29703 0.17565,-0.53487 0.53134,-0.13336 1.09401,-0.1634 1.25038,-0.0668 0.15637,0.0966 0.20773,1.36895 0.11414,2.82736 -0.16261,2.53374 -0.13328,2.66529 0.65954,2.95857 0.79369,0.29361 0.78037,0.31417 -0.30675,0.47373 -0.83174,0.12207 -1.13646,0.0304 -1.13646,-0.34184 0,-0.42648 -0.14046,-0.41661 -0.86954,0.0611 -1.18373,0.77561 -2.55071,0.72427 -2.99861,-0.11263 z m 7.90906,-0.18354 c -2.41642,-2.41642 0.34773,-6.83812 3.51496,-5.62274 0.58355,0.22393 0.78551,1.19698 0.24843,1.19698 -0.17026,0 -0.5072,-0.23812 -0.74875,-0.52917 -0.59346,-0.71508 -1.5302,-0.66655 -2.23837,0.11598 -0.82173,0.90799 -0.78365,3.65079 0.0613,4.41546 0.75464,0.68294 2.20677,0.76582 2.81208,0.16051 0.32926,-0.32926 0.42334,-0.32732 0.42334,0.009 0,0.48106 -1.43118,1.12016 -2.50845,1.12016 -0.38424,0 -1.08828,-0.38966 -1.56453,-0.86591 z m 14.2764,-0.16529 c -0.76345,-0.76345 -1.0312,-1.36588 -1.0312,-2.32019 0,-1.58917 1.57167,-3.35139 2.98899,-3.35139 1.4692,0 2.89483,0.93102 3.32789,2.1733 1.17604,3.37357 -2.7873,5.99667 -5.28568,3.49828 z m 3.7113,-0.10563 c 0.30204,-0.43123 0.54917,-1.42778 0.54917,-2.21456 0,-1.74488 -0.80907,-2.99861 -1.93509,-2.99861 -1.57146,0 -2.61566,1.85686 -2.13262,3.79236 0.53526,2.14469 2.46555,2.92416 3.51854,1.42081 z m 4.40259,0.10563 c -0.76345,-0.76345 -1.0312,-1.36588 -1.0312,-2.32019 0,-1.58917 1.57167,-3.35139 2.98899,-3.35139 1.4692,0 2.89483,0.93102 3.32789,2.1733 1.17604,3.37357 -2.7873,5.99667 -5.28568,3.49828 z m 3.7113,-0.10563 c 0.30204,-0.43123 0.54917,-1.42778 0.54917,-2.21456 0,-1.74488 -0.80907,-2.99861 -1.93509,-2.99861 -1.57146,0 -2.61566,1.85686 -2.13262,3.79236 0.53525,2.14469 2.46555,2.92416 3.51854,1.42081 z m 9.545,0.8025 c -1.55222,-0.11271 -2.42535,-0.28204 -1.94028,-0.37628 l 0.88195,-0.17134 v -4.5702 -4.57021 l -0.88195,-0.24532 c -0.54508,-0.15162 0.0613,-0.24312 1.5875,-0.23956 1.3582,0.003 2.15195,0.0851 1.76389,0.18203 -0.38805,0.0969 -0.82219,0.35634 -0.96474,0.57643 -0.3976,0.61388 -0.31818,7.58844 0.0952,8.36086 0.61535,1.14979 2.35462,0.88965 3.71817,-0.55614 l 1.16806,-1.2385 -0.54221,1.59128 c -0.43323,1.27146 -0.69507,1.57828 -1.30279,1.52658 -0.41832,-0.0356 -2.03059,-0.15691 -3.58281,-0.26963 z m -114.56459,-0.44901 c 0.75926,-0.36618 0.79375,-0.57101 0.79375,-4.71409 0,-4.21121 -0.022,-4.33552 -0.79375,-4.48416 -0.43657,-0.0841 0.23812,-0.15288 1.4993,-0.15288 1.26118,0 1.93587,0.0688 1.49931,0.15288 -0.77175,0.14864 -0.79375,0.27295 -0.79375,4.48416 0,4.14308 0.0345,4.34791 0.79375,4.71409 0.65807,0.31737 0.4018,0.38281 -1.49931,0.38281 -1.9011,0 -2.15738,-0.0654 -1.4993,-0.38281 z m 5.11527,0.18738 c 0.51211,-0.13383 0.61737,-0.57294 0.61737,-2.57551 0,-1.45982 -0.15528,-2.46594 -0.39279,-2.54511 -0.21604,-0.072 0.0221,-0.31996 0.52916,-0.551 0.77616,-0.35364 0.92196,-0.33442 0.92196,0.12153 0,0.48469 0.0824,0.4839 0.78405,-0.008 0.43123,-0.30204 1.12616,-0.54917 1.5443,-0.54917 1.25505,0 1.68293,0.89741 1.61436,3.3859 -0.0569,2.06551 0.0122,2.31118 0.73125,2.6002 0.63898,0.25683 0.45359,0.32355 -0.94903,0.34154 -1.49843,0.0192 -1.65657,-0.0409 -1.12658,-0.42846 0.49055,-0.3587 0.59444,-0.87385 0.5084,-2.52112 -0.12648,-2.42143 -0.72055,-3.0693 -2.19741,-2.3964 -0.84042,0.38292 -0.90934,0.58675 -0.90934,2.68908 0,1.86978 0.10991,2.30347 0.61736,2.43608 0.33955,0.0887 -0.17639,0.16134 -1.14653,0.16134 -0.97014,0 -1.48607,-0.0726 -1.14653,-0.16134 z m 22.57778,-0.13786 c 0.53735,-0.31297 0.61736,-0.9479 0.61736,-4.89876 0,-3.31217 -0.1192,-4.58175 -0.44097,-4.69667 -0.55139,-0.19693 -0.31906,-0.44825 0.70556,-0.7632 l 0.79375,-0.24398 v 5.28956 c 0,4.74105 0.064,5.30631 0.61736,5.45091 0.33955,0.0887 -0.17639,0.17492 -1.14653,0.19153 -1.35729,0.0232 -1.62158,-0.0527 -1.14653,-0.32939 z m 20.92302,-0.4479 c -1.30003,-1.30004 -1.23729,-3.12425 0.15536,-4.5169 0.86739,-0.86739 1.29683,-1.03745 2.38125,-0.943 l 1.32302,0.11523 0.10892,-1.70985 c 0.0842,-1.32245 -0.0357,-1.81945 -0.52917,-2.19363 -0.35094,-0.26609 -0.45263,-0.48885 -0.22597,-0.49502 0.22667,-0.006 0.66323,-0.10758 0.97014,-0.22535 0.49315,-0.18924 0.55802,0.38494 0.55802,4.93888 0,4.6704 0.0578,5.15353 0.61736,5.15843 0.5276,0.005 0.54042,0.0551 0.0882,0.34737 -0.75805,0.48989 -1.86385,0.44714 -1.55045,-0.06 0.18066,-0.29231 0.0581,-0.32922 -0.42015,-0.12649 -1.646,0.69774 -2.56571,0.62109 -3.47653,-0.28972 z m 3.61702,-1.79352 c 0.16103,-2.54392 -0.12831,-3.37476 -1.17522,-3.37476 -0.48137,0 -1.19273,0.3175 -1.58078,0.70555 -1.55023,1.55023 -0.33849,4.75504 1.70833,4.5182 0.85571,-0.099 0.94711,-0.26033 1.04767,-1.84899 z m 32.22099,2.38625 c 0.82022,-0.21786 0.99603,-1.17833 1.00153,-5.47123 0.004,-2.81206 -0.12387,-3.89585 -0.50276,-4.27474 -0.44159,-0.44158 -0.39572,-0.55854 0.35277,-0.89958 l 0.86036,-0.392 v 3.6966 c 0,4.06123 0.23955,4.43724 1.78134,2.79608 0.71336,-0.75934 0.76449,-0.95208 0.32608,-1.22932 -0.36087,-0.22821 0.0197,-0.32613 1.24397,-0.32007 l 1.76389,0.009 -1.05834,0.56648 c -0.58208,0.31156 -1.41682,0.84501 -1.85497,1.18544 l -0.79663,0.61897 1.86804,1.97543 1.86805,1.97543 -1.60058,-0.005 c -1.05457,-0.004 -1.43401,-0.11089 -1.11232,-0.31463 0.38915,-0.24646 0.25185,-0.6034 -0.6764,-1.75849 -0.64056,-0.79709 -1.29684,-1.44926 -1.4584,-1.44926 -0.16155,0 -0.29373,0.62711 -0.29373,1.39358 0,0.95505 0.19427,1.50673 0.61736,1.75316 0.47505,0.27669 0.21076,0.35262 -1.14653,0.32939 -0.97014,-0.0166 -1.50237,-0.0997 -1.18273,-0.18456 z m 36.87209,0.001 c -0.81932,-0.81931 0.27745,-2.35183 1.98881,-2.77899 0.85454,-0.21329 0.97466,-0.39722 0.88195,-1.3504 -0.1334,-1.37143 -1.40731,-1.7307 -2.11555,-0.59663 -0.51289,0.82128 -0.9904,0.95375 -0.9904,0.27477 0,-0.55778 1.80662,-1.66356 2.7179,-1.66356 1.17176,0 1.51543,0.74536 1.51543,3.2867 0,2.32778 0.0351,2.43085 0.7632,2.24045 0.71466,-0.18689 0.72552,-0.1619 0.17069,0.39293 -0.49333,0.49333 -0.71102,0.5185 -1.30049,0.15037 -0.50377,-0.31461 -0.90246,-0.33806 -1.38222,-0.0813 -0.76774,0.41089 -1.9008,0.47418 -2.24932,0.12566 z m 2.38179,-0.6845 c 0.47663,-0.1829 0.84233,-1.90254 0.4046,-1.90254 -0.82659,0 -1.96325,0.81194 -1.96325,1.40238 0,0.72123 0.53509,0.89294 1.55865,0.50016 z m 4.17399,0.67651 c 0.5121,-0.13383 0.61736,-0.57294 0.61736,-2.57551 0,-1.45983 -0.15527,-2.46594 -0.39279,-2.54511 -0.21603,-0.072 0.0221,-0.31997 0.52917,-0.55101 0.77615,-0.35364 0.92196,-0.33441 0.92196,0.12154 0,0.48469 0.0824,0.48389 0.78405,-0.008 0.43122,-0.30204 1.12616,-0.54917 1.5443,-0.54917 1.25505,0 1.68292,0.89741 1.61436,3.38589 -0.0569,2.06552 0.0122,2.31119 0.73125,2.60021 0.63898,0.25683 0.45359,0.32355 -0.94903,0.34154 -1.49844,0.0192 -1.65658,-0.0409 -1.12658,-0.42846 0.49055,-0.3587 0.59444,-0.87386 0.50839,-2.52112 -0.12647,-2.42143 -0.72054,-3.0693 -2.1974,-2.3964 -0.84042,0.38292 -0.90934,0.58674 -0.90934,2.68908 0,1.86978 0.1099,2.30347 0.61736,2.43608 0.33955,0.0887 -0.17639,0.16133 -1.14653,0.16133 -0.97014,0 -1.48608,-0.0726 -1.14653,-0.16133 z m 8.5758,-0.58577 c -1.30004,-1.30003 -1.2373,-3.12425 0.15535,-4.51689 0.86739,-0.8674 1.29683,-1.03746 2.38125,-0.94301 l 1.32302,0.11524 0.10892,-1.70985 c 0.0842,-1.32246 -0.0357,-1.81945 -0.52917,-2.19364 -0.35094,-0.26609 -0.45263,-0.48884 -0.22597,-0.49501 0.22667,-0.006 0.66323,-0.10758 0.97014,-0.22536 0.49315,-0.18923 0.55802,0.38495 0.55802,4.93889 0,4.6704 0.0578,5.15353 0.61736,5.15842 0.5276,0.005 0.54042,0.0551 0.0882,0.34738 -0.75805,0.48989 -1.86385,0.44713 -1.55045,-0.06 0.18066,-0.29232 0.0581,-0.32922 -0.42015,-0.1265 -1.646,0.69774 -2.56571,0.6211 -3.47652,-0.28971 z m 3.61701,-1.79351 c 0.16103,-2.54392 -0.12831,-3.37477 -1.17522,-3.37477 -0.48138,0 -1.19273,0.3175 -1.58078,0.70556 -1.55022,1.55022 -0.33849,4.75503 1.70833,4.5182 0.85571,-0.099 0.94711,-0.26034 1.04767,-1.84899 z"
     id="path255"
     sodipodi:nodetypes="ssssssssssssssssssssssscssscsssssssssssccsssssssssscsscssscssssssssssscccssssssssccsssssssssssssssssssssscccsssssscsssscsssssssccsssscsssssssscsccsssscsccscssccscssccssccsssssccsscsssccssccccssssssccsssssssssssssssscsssscsssssssssscccssccssssccssccsssss" /><g
     id="g500"
     transform="matrix(0.04444414,0,0,0.04444414,81.188169,134.31897)"><rect
      style="fill:#3aaae1;fill-opacity:1;fill-rule:nonzero;stroke:#000000;stroke-width:0.4;stroke-linecap:butt;stroke-linejoin:miter;stroke-miterlimit:4;stroke-dasharray:none;stroke-dashoffset:0;stroke-opacity:1"
      id="rect3783"
      width="586.42859"
      height="586.42859"
      x="91.428574"
      y="95.933609"
      inkscape:export-xdpi="180"
      inkscape:export-ydpi="180" /><path
      style="fill:#4d4d4d;stroke:#000000;stroke-width:1px;stroke-linecap:butt;stroke-linejoin:miter;stroke-opacity:1"
      d="m 636.42857,280.21932 c -10.37112,16.16387 -49.39231,20.7406 -69.28572,35.00001 -0.87136,43.75651 -8.99778,81.36141 -22.4012,113.34751 -80.30802,28.06354 -126.03457,26.07171 -282.59879,13.79535 -43.84527,-19.7351 -110.59122,-66.04468 -122.85714,-122.85715 11.90476,5.54421 54.5238,27.59861 66.42856,25.71429 -28.94615,-27.69826 -77.67143,-75.53315 -72.85714,-139.28571 57.39305,70.49109 204.76673,123.94253 280,125.71428 -13.23434,-95.51631 71.47221,-140.86513 131.42858,-77.14286 13.33334,-0.73756 39.52381,-48.35604 57.14286,-59.99999 -5.06593,25.68378 -23.76027,73.41543 -35.71429,85.71428 15.47619,-0.29639 55.23809,5.98266 70.71428,-1e-5 z"
      id="path3011"
      inkscape:connector-curvature="0"
      sodipodi:nodetypes="cccccccccccc" /><path
      style="fill:#e6e6e6;stroke:#000000;stroke-width:1px;stroke-linecap:butt;stroke-linejoin:miter;stroke-opacity:1"
      d="m 275.71429,539.50504 c -91.87614,28.88372 -130.89452,-116.38389 -30,-121.42857 92.70511,22.11767 213.70764,18.86541 287.85714,9.28571 84.66436,-11.11542 96.03741,94.60635 25,109.28572 -12.70769,15.29891 -28.3431,24.74238 -54.28572,13.57142 -28.62377,59.29701 -117.82115,43.96547 -134.28571,5.71429 -7.32677,25.99296 -78.62529,46.33201 -94.28571,-16.42857 z"
      id="path2998"
      inkscape:connector-curvature="0"
      sodipodi:nodetypes="ccccccc" /></g></g></g></svg>
