<?xml version="1.0" encoding="UTF-8" standalone="no"?>
<!-- Created with Inkscape (http://www.inkscape.org/) -->

<svg
   xmlns:dc="http://purl.org/dc/elements/1.1/"
   xmlns:cc="http://creativecommons.org/ns#"
   xmlns:rdf="http://www.w3.org/1999/02/22-rdf-syntax-ns#"
   xmlns:svg="http://www.w3.org/2000/svg"
   xmlns="http://www.w3.org/2000/svg"
   xmlns:sodipodi="http://sodipodi.sourceforge.net/DTD/sodipodi-0.dtd"
   xmlns:inkscape="http://www.inkscape.org/namespaces/inkscape"
   id="svg2816"
   version="1.1"
   inkscape:version="0.47 r22583"
   width="1414"
   height="1414"
   sodipodi:docname="pochoir.svg">
  <metadata
     id="metadata2822">
    <rdf:RDF>
      <cc:Work
         rdf:about="">
        <dc:format>image/svg+xml</dc:format>
        <dc:type
           rdf:resource="http://purl.org/dc/dcmitype/StillImage" />
        <dc:title></dc:title>
      </cc:Work>
    </rdf:RDF>
  </metadata>
  <defs
     id="defs2820">
    <inkscape:perspective
       sodipodi:type="inkscape:persp3d"
       inkscape:vp_x="0 : 0.5 : 1"
       inkscape:vp_y="0 : 1000 : 0"
       inkscape:vp_z="1 : 0.5 : 1"
       inkscape:persp3d-origin="0.5 : 0.33333333 : 1"
       id="perspective2824" />
    <inkscape:perspective
       id="perspective2841"
       inkscape:persp3d-origin="0.5 : 0.33333333 : 1"
       inkscape:vp_z="1 : 0.5 : 1"
       inkscape:vp_y="0 : 1000 : 0"
       inkscape:vp_x="0 : 0.5 : 1"
       sodipodi:type="inkscape:persp3d" />
  </defs>
  <sodipodi:namedview
     pagecolor="#ffffff"
     bordercolor="#666666"
     borderopacity="1"
     objecttolerance="10"
     gridtolerance="10"
     guidetolerance="10"
     inkscape:pageopacity="0"
     inkscape:pageshadow="2"
     inkscape:window-width="1920"
     inkscape:window-height="1144"
     id="namedview2818"
     showgrid="false"
     inkscape:zoom="0.66760962"
     inkscape:cx="1109.0197"
     inkscape:cy="774.9932"
     inkscape:window-x="1020"
     inkscape:window-y="-4"
     inkscape:window-maximized="1"
     inkscape:current-layer="layer1" />
  <g
     inkscape:groupmode="layer"
     id="layer1"
     inkscape:label="Calque"
     style="display:inline">
    <path
       style="fill:#000000"
       d="m 688.43531,1210.2457 c -1.251,-0.2401 -2.992,-1.5315 -3.8689,-2.8697 -2.3659,-3.6108 -0.3378,-7.8115 4.7553,-9.8493 2.1608,-0.8646 4.5946,-1.572 5.4085,-1.572 0.8139,0 2.3717,-0.8919 3.4618,-1.9821 1.5794,-1.5793 1.7885,-2.4912 1.0292,-4.4882 -0.8465,-2.2264 -0.6491,-2.5913 1.768,-3.268 7.0082,-1.962 83.7241,0.075 89.7385,2.3835 4.1665,1.5988 1.5767,2.6022 -20.0178,7.7558 -18.3469,4.3785 -77.728,15.1636 -79.6303,14.4628 -0.2033,-0.075 -1.3932,-0.3326 -2.6443,-0.5728 z m 419.67499,-33.3188 c -0.055,-7.9597 -0.4123,-15.5972 -0.7944,-16.9722 l -0.6948,-2.5 -41.7871,-0.5 c -39.5119,-0.4728 -41.8622,-0.603 -43.1688,-2.391 -1.8784,-2.5703 -7.2399,-1.7709 -19.4932,2.9066 -10.90239,4.1618 -28.35109,9.4844 -31.09209,9.4844 -1.2099,0 -1.87,-0.7135 -1.87,-2.0214 0,-5.4647 -9.0358,-4.9163 -40,2.4276 -10.175,2.4133 -23.225,4.9098 -29,5.5479 -5.775,0.6381 -14.1,2.0964 -18.5,3.2407 -10.9157,2.8387 -28.4165,3.771 -50.5,2.6903 -19.7136,-0.9648 -23,-1.3743 -23,-2.8663 0,-1.2274 13.8152,-5.4595 26.5,-8.1178 11.2022,-2.3477 26.5604,-6.703 27.8372,-7.8942 0.4604,-0.4296 0.2354,-1.1694 -0.5,-1.6439 -0.7401,-0.4776 -167.8998,-1.0861 -374.3812,-1.3629 -359.69432,-0.4821 -373.14423,-0.5657 -375.84409,-2.3347 -3.66274,-2.4 -7.67903,-11.3145 -8.32951,-18.4881 -0.49643,-5.4747 -0.34067,-5.9572 3.85015,-11.9259 9.68207,-13.7894 120.25895,-148.40627 123.24851,-150.04333 2.9261,-1.60231 31.38076,-1.72614 460.11894,-2.00232 251.35,-0.16191 459.33989,-0.0199 462.19959,0.31565 2.8598,0.33553 6.6848,1.6079 8.5,2.8275 1.8153,1.2196 9.8255,10.33285 17.8005,20.25166 7.975,9.91884 21.9674,27.22884 31.0943,38.46684 20.2631,24.9502 20.0278,24.5933 17.4646,26.4936 -1.0677,0.7915 -3.3693,1.4391 -5.1147,1.4391 -2.4681,0 -3.7039,-0.7512 -5.5589,-3.3791 -1.3119,-1.8585 -6.4353,-8.4136 -11.3853,-14.5668 -10.703,-13.3046 -12.5,-16.3475 -12.5,-21.1661 0,-4.2736 -1.9865,-6.3149 -5.4931,-5.6445 -1.3775,0.2633 -3.1117,-0.021 -3.8537,-0.6324 -0.742,-0.6111 -6.9944,-8.1044 -13.8941,-16.65175 -6.8997,-8.54738 -13.7393,-16.08488 -15.1991,-16.75 -2.0633,-0.94012 -104.4668,-1.20931 -460.03039,-1.20931 l -457.37621,0 -3.16073,2.65958 c -1.73841,1.46277 -14.73483,16.87528 -28.88094,34.24998 -97.14282,119.3141 -89.66198,109.7815 -88.65135,112.9657 0.9287,2.9261 4.30484,3.5302 14.39345,2.5754 4.75537,-0.45 19.55863,-0.7856 32.89613,-0.7457 13.3375,0.04 28.75,0.073 34.25,0.073 5.49999,2e-4 20.79999,3e-4 33.99999,3e-4 13.2,0 28.5,2e-4 34,4e-4 5.5,3e-4 20.575,0.01 33.5,0.015 12.925,0.01 28.675,0.01 35,0 14.38538,-0.021 324.32796,-0.023 339.99996,0 6.325,0.01 22.975,0.011 37,0.01 14.025,-0.01 30.225,-0.01 36,-0.01 5.775,0 20.625,0 33,0.01 29.3953,0.01 39.7253,0.01 68,-0.01 35.9987,-0.016 41.6668,-0.014 67.75,0.019 44.6407,0.058 94.00279,1.6154 96.84489,3.0556 1.8995,0.9626 3.5073,1.0521 6,0.3341 1.8728,-0.5394 7.4551,-2.176 12.4051,-3.6367 5.9676,-1.7611 13.2116,-2.9652 21.5,-3.5737 6.875,-0.5048 15.875,-1.8197 20,-2.9221 8.3785,-2.239 22.7548,-7.6179 24.7201,-9.249 2.0966,-1.74 1.4719,-4.2617 -1.8285,-7.3802 -2.6447,-2.4989 -10.634,-13.5143 -13.3722,-18.4371 -0.4589,-0.825 2.949,2.1255 7.5731,6.5568 9.6246,9.223 13.9197,12.4432 16.5966,12.4432 1.0342,0 4.441,-0.9 7.5707,-2 3.1297,-1.1 7.4129,-2 9.5183,-2 2.6884,0 5.0543,-0.9019 7.9473,-3.0294 3.1252,-2.2983 5.7415,-3.2246 10.8417,-3.8386 5.7239,-0.6891 7.0239,-1.223 8.7511,-3.5941 2.4933,-3.4228 7.3159,-5.5379 12.6267,-5.5379 5.1019,0 6.3417,-1.7947 9.5678,-13.8498 2.4968,-9.3295 10.7162,-27.1502 12.5224,-27.1502 0.5583,0 1.283,1.3399 1.6105,2.9776 0.3275,1.6376 1.1038,3.3903 1.725,3.8947 0.6212,0.5045 4.7961,1.0783 9.2776,1.2752 6.2559,0.2749 8.6362,0.7998 10.25,2.2603 4.9736,4.501 0.5466,7.575 -10.9256,7.5866 -8.6837,0.01 -9.9725,1.4339 -9.9725,11.0271 0,6.896 0.2571,8.0457 2.0086,8.9831 2.474,1.324 7.0368,0.047 41.6775,-11.6623 13.8523,-4.6824 26.0023,-8.3398 27,-8.1274 1.4941,0.3182 1.1232,0.9943 -2.104,3.8357 -6.6204,5.8286 -7.5821,6.8972 -7.5821,8.4242 0,0.8112 7.6897,11.0487 17.0882,22.75 9.3984,11.7014 17.9484,22.9448 19,24.9854 2.4353,4.7261 2.4124,8.4154 -0.097,15.5539 -2.4323,6.9204 -6.3409,11.0657 -11.5796,12.2808 -6.0755,1.4092 -28.7115,1.1918 -30.7099,-0.2949 -0.9241,-0.6875 -2.1258,-3.6246 -2.6704,-6.5269 -0.5446,-2.9023 -1.4495,-6.1352 -2.0109,-7.1843 -1.5002,-2.8032 -1.2442,-5.7391 0.561,-6.4318 0.87,-0.3339 8.43,-0.607 16.8,-0.607 16.0444,0 17.6182,-0.411 17.6182,-4.6009 0,-2.3935 -7.0274,-12.279 -13.6646,-19.2221 -4.894,-5.1196 -7.4355,-5.2312 -8.4297,-0.3702 -0.3706,1.8121 -0.9885,3.6094 -1.3731,3.9939 -0.3846,0.3846 -6.4755,0.6993 -13.5354,0.6993 -12.2086,0 -12.9622,-0.1185 -15.4166,-2.4243 -1.4193,-1.3334 -2.5806,-3.4158 -2.5806,-4.6276 0,-4.1541 2.4347,-4.9254 16.7218,-5.2979 10.2782,-0.2679 13.5422,-0.6745 13.9501,-1.7377 1.2146,-3.165 -8.4993,-15.4125 -12.2242,-15.4125 -0.7693,0 -5.1223,1.9413 -9.6732,4.3139 -4.551,2.3727 -10.8115,5.3596 -13.9124,6.6376 l -5.6379,2.3236 -5.4838,-3.1376 c -6.7124,-3.8404 -8.0037,-3.8869 -10.7661,-0.3875 -2.8332,3.589 -2.3871,11.4572 0.9123,16.0907 l 2.2483,3.1575 -2.3174,0.8936 c -1.2746,0.4915 -4.1175,2.3396 -6.3175,4.107 -3.7418,3.0058 -4.3679,3.1755 -9.6992,2.6279 -6.2919,-0.6463 -7.0143,-0.2534 -10.8019,5.875 -3.9415,6.3776 -3.4392,6.4983 27.035,6.4983 l 26.789,0 5.8385,7.5826 c 8.5522,11.1067 9.1775,12.2508 7.3386,13.4272 -0.908,0.5809 -22.1123,0.9656 -53.7269,0.9749 l -52.227,0.015 -1.4828,2.263 c -0.8155,1.2447 -1.9757,4.5617 -2.5783,7.3711 -1.1271,5.2559 -8.5397,19.336 -12.0233,22.8381 -1.9495,1.9599 -1.9623,1.8819 -2.0614,-12.5 z m -969.69737,-47.1032 c -3.85497,-1.1114 -4.89121,-3.0631 -3.38345,-6.3722 1.67741,-3.6816 6.81866,-4.4856 28.68048,-4.4856 21.86182,0 27.00307,0.804 28.68048,4.4856 1.55623,3.4155 0.46324,5.2306 -3.8752,6.4354 -4.71116,1.3082 -45.5242,1.2568 -50.10231,-0.063 z m 69.17278,0.045 c -4.43151,-1.2848 -5.54994,-2.9306 -4.04536,-5.9529 2.1789,-4.3766 6.96128,-5.1168 30.84115,-4.7729 21.45633,0.3089 21.69758,0.3365 24.29159,2.7754 3.53567,3.3243 2.98911,6.2119 -1.46314,7.7302 -4.18327,1.4265 -44.84115,1.607 -49.62424,0.2202 z m 67.82721,-0.045 c -3.85497,-1.1114 -4.89121,-3.0631 -3.38345,-6.3722 1.66439,-3.653 6.80275,-4.4856 27.68048,-4.4856 20.87773,0 26.01609,0.8326 27.68048,4.4856 1.55623,3.4155 0.46324,5.2306 -3.8752,6.4354 -4.70105,1.3054 -43.53233,1.2544 -48.10231,-0.063 z m 69.79703,-0.1754 c -4.34648,-1.4823 -4.60175,-4.1552 -0.67671,-7.0857 l 2.8233,-2.1079 156.67667,0 c 156.299,0 156.6852,0.01 160.1767,2.0561 2.0946,1.2304 3.5,2.8366 3.5,4 0,4.3595 1.0721,4.331 -163,4.331 -118.2439,0 -156.84705,-0.2889 -159.49996,-1.1935 z m 340.20296,0.1754 c -3.8583,-1.1124 -4.8911,-3.0633 -3.3789,-6.3823 1.8151,-3.9836 7.0863,-4.6783 32.747,-4.3156 23.1471,0.3271 23.2852,0.342 25.8917,2.7923 3.5361,3.3242 2.9897,6.2118 -1.4628,7.7302 -4.2687,1.4557 -48.8522,1.6011 -53.797,0.1754 z m 71.797,-0.1754 c -4.4383,-1.5136 -5.1045,-4.6799 -1.7009,-8.0836 3.235,-3.235 9.1682,-3.9045 30.684,-3.4628 l 17.1821,0.3528 2.9743,3.3294 c 3.5404,3.9632 3.356,5.1042 -1.199,7.419 -2.9555,1.5021 -6.3299,1.7408 -23.9405,1.6936 -13.1191,-0.035 -21.7601,-0.4846 -24,-1.2484 z m 66.0122,0 c -4.5153,-1.5452 -4.8368,-3.7391 -1.152,-7.8631 l 2.9758,-3.3305 23.164,0 23.1641,0 2.9758,3.3305 c 6.7312,7.5335 2.3352,9.0566 -26.1399,9.0566 -14.0429,0 -22.7097,-0.414 -24.9878,-1.1935 z m 68.1908,0.1754 c -3.8583,-1.1124 -4.8911,-3.0633 -3.3789,-6.3823 1.8035,-3.9581 7.1399,-4.6843 31.7314,-4.318 20.3708,0.3035 22.4187,0.4949 24.3886,2.2791 3.2913,2.981 2.3993,6.7646 -1.9441,8.2458 -4.2611,1.4531 -45.8671,1.5968 -50.797,0.1754 z m 77.8023,-6.7153 c -3.172,-0.9427 -3.6088,-3.1868 -1.1993,-6.1623 1.6493,-2.0369 2.9836,-2.3914 10.4834,-2.785 11.6175,-0.6098 17.3702,0.3623 20.466,3.4581 2.33619,2.3362 2.39259,2.6162 0.8399,4.1699 -1.3624,1.3634 -4.0625,1.7015 -14.8798,1.8632 -7.2685,0.1086 -14.3381,-0.1361 -15.7102,-0.5439 z m 39.24469,-0.2175 c -3.7423,-1.1439 -4.0202,-2.166 -1.3221,-4.8641 2.5513,-2.5513 9.1052,-3.4342 21.1771,-2.8529 7.6758,0.3696 10.3504,0.883 11.8983,2.2838 2.4616,2.2277 2.5502,4.0417 0.2467,5.0461 -2.725,1.1881 -28.3646,1.4983 -32,0.3871 z m 40.3748,-3.6447 c -1.3966,-1.3966 2.8061,-4.2915 6.2302,-4.2915 2.2348,0 3.1939,0.3503 2.595,0.9478 -1.5302,1.5268 -8.1384,4.0305 -8.8252,3.3437 z m -709.05715,-23.6924 c -9.61867,-3.0435 -9.76485,-4.2999 -0.71289,-6.1269 4.35236,-0.8785 25.14529,0.4753 25.14529,1.6371 0,0.4899 -0.6346,0.8907 -1.41021,0.8907 -0.77562,0 -4.26312,1.3496 -7.75,2.9992 -3.48689,1.6496 -6.78979,2.9529 -7.33979,2.8963 -0.55,-0.057 -4.11958,-1.09 -7.9324,-2.2964 z m 468.68236,1.762 c -1.886,-0.7963 -1.4991,-4.1574 0.6084,-5.2853 2.7692,-1.482 78.9334,-1.684 80.4042,-0.2133 0.8499,0.85 0.4387,1.1375 -1.6272,1.1375 -1.5205,0 -4.978,0.9522 -7.6833,2.116 -4.9419,2.1259 -6.3846,2.1249 -14.4521,-0.01 -6.2933,-1.6653 -39.9994,-1.3981 -46.5399,0.369 -8.4895,2.2937 -9.3749,2.4496 -10.7101,1.8859 z m -529.31953,-1.9449 c -1.89626,-2.2849 0.0222,-4.7929 4.1784,-5.4626 1.86514,-0.3006 10.14117,-0.3006 18.39117,0 12.42381,0.4526 15,0.804 15,2.0464 0,1.225 -2.43021,1.6199 -13.25551,2.1541 -7.29053,0.3597 -14.67018,1.1472 -16.39922,1.75 -4.31018,1.5025 -6.3682,1.3757 -7.91484,-0.4879 z m 389.21063,-0.5858 c -2.4527,-1.126 -7.6063,-2.2467 -11.7844,-2.5627 -4.756,-0.3597 -7.2942,-0.9581 -7.0604,-1.6646 0.4717,-1.4255 25.5812,-2.9496 29.9676,-1.819 4.0703,1.0491 4.8473,4.3242 1.5705,6.6193 -2.9877,2.0928 -7.3117,1.8975 -12.6933,-0.573 z m 84.2787,-0.9602 c -0.3256,-0.5268 -0.048,-1.6131 0.6166,-2.414 0.9704,-1.1693 4.4845,-1.4532 17.8361,-1.4409 15.9079,0.015 20.8408,0.7618 18.6192,2.8202 -1.3784,1.277 -36.3194,2.2523 -37.0719,1.0347 z m -583.66975,-0.5865 c -3.09669,-0.4691 -3.56701,-2.3605 -1.0969,-4.4113 1.26689,-1.0518 5.88105,-1.3724 19.75,-1.3724 18.35144,0 22.59689,0.7362 22.59689,3.9186 0,0.7415 -1.0125,1.6195 -2.25,1.9511 -2.45648,0.6583 -34.55391,0.5876 -38.99999,-0.086 z m 57.44036,-1.0337 c 0.30647,-1.5913 2.01172,-1.75 18.80963,-1.75 16.79791,0 18.50316,0.1587 18.80963,1.75 0.3115,1.6175 -1.11301,1.75 -18.80963,1.75 -17.69662,0 -19.12113,-0.1325 -18.80963,-1.75 z m 474.30529,-0.2571 c -1.1014,-1.7821 1.7549,-2.0485 18.9587,-1.768 12.415,0.2023 16.9909,0.6058 17.2966,1.5251 0.5296,1.5925 -35.2729,1.8324 -36.2553,0.2429 z m -312.90978,-0.854 c -1.51915,-2.458 2.61639,-3.1869 16.5505,-2.917 11.97737,0.2319 14.36362,0.5273 14.36362,1.7781 0,1.2553 -2.4753,1.545 -15.17513,1.7756 -8.40024,0.1526 -15.42687,-0.1316 -15.73899,-0.6367 z m 155.92488,-0.1215 c -0.3506,-0.5674 -0.028,-1.2656 0.7179,-1.5516 2.51,-0.9632 32.2713,-0.01 32.2713,1.0342 0,1.3887 -32.1392,1.8927 -32.9892,0.5174 z m 559.48919,-7.0174 c 0,-0.55 0.8735,-1 1.9411,-1 1.0675,0 2.2191,0.45 2.559,1 0.3505,0.5672 -0.4896,1 -1.941,1 -1.4074,0 -2.5591,-0.45 -2.5591,-1 z m -878.49995,-17.9905 c -3.85,-0.4186 -14.3455,-0.817 -23.32331,-0.8853 -14.96955,-0.1139 -16.29555,-0.2693 -15.98834,-1.8742 0.30273,-1.5815 2.50014,-1.8124 22.82331,-2.3977 22.29925,-0.6422 33.98834,-0.2564 33.98834,1.1219 0,1.6431 -3.98727,4.1352 -7.12597,4.4538 -1.85572,0.1884 -6.52403,0 -10.37403,-0.4185 z m 206.17385,-0.4881 c -7.0939,-1.5509 -8.74955,-2.8743 -6.46007,-5.1638 3.43563,-3.4356 31.89249,-2.7599 32.57295,0.7735 0.2472,1.2836 -0.87058,1.7739 -5.30826,2.3283 -3.09176,0.3863 -7.14978,1.341 -9.01781,2.1215 -3.91473,1.6357 -4.03539,1.6351 -11.78681,-0.059 z m -99.08614,-1.0677 c -13.99746,-3.9275 -3.2296,-7.5585 17.31633,-5.8391 8.41562,0.7042 10.6421,1.2106 10.88072,2.4747 0.2423,1.2836 -1.39146,1.8257 -8.49237,2.8179 -14.15516,1.9778 -14.56353,1.9891 -19.70468,0.5465 z m 49.91229,-0.2274 c -12.25893,-3.5487 -4.24155,-6.8215 14.5,-5.9192 10.74691,0.5175 13,1.1539 13,3.6721 0,1.9637 -2.7103,2.6129 -14.5,3.4732 -4.9722,0.3628 -8.73811,0.01 -13,-1.2261 z m 100.5,0.2236 c -2.475,-0.7089 -5.55,-1.3252 -6.83333,-1.3694 -1.39624,-0.048 -2.16792,-0.5825 -1.92146,-1.3305 0.91889,-2.7888 34.75475,-2.8943 34.75475,-0.1084 0,0.9359 -1.3501,1.3584 -4.341,1.3584 -2.3876,0 -6.55012,0.6701 -9.25003,1.4892 -5.63664,1.7099 -6.30924,1.7078 -12.40893,-0.039 z m 54.49996,0.6133 c -1.1,-0.4456 -4.362,-1.1342 -7.2488,-1.5303 -5.8965,-0.8091 -6.9844,-1.6795 -4.5864,-3.6696 1.2239,-1.0158 5.4182,-1.3633 16.4532,-1.3633 12.651,0 15.0604,0.2498 16.5239,1.7133 2.0542,2.0542 2.146,2.0123 -9.2416,4.2179 -9.0623,1.7552 -9.1195,1.7582 -11.9003,0.632 z m 45,-0.7839 c -8.9457,-2.161 -8.9958,-2.1834 -7.7228,-3.4564 1.2046,-1.2047 32.2988,-1.512 34.1983,-0.3381 1.8544,1.1461 0.017,2.5152 -3.3755,2.5152 -1.8052,0 -5.4911,0.6701 -8.191,1.4892 -5.7324,1.739 -6.9103,1.7224 -14.909,-0.2099 z m 56.4213,1.3367 c -0.3183,-0.3338 -3.4683,-1.1917 -7,-1.9065 -13.7712,-2.7872 -4.0135,-6.2727 15.0787,-5.3861 10.7419,0.4988 13,1.1343 13,3.6586 0,1.1937 -1.0556,1.9806 -3.25,2.4225 -5.2563,1.0586 -17.2005,1.8702 -17.8287,1.2115 z m 42.1047,-0.7178 c -3.0107,-0.5204 -5.8521,-1.3243 -6.3143,-1.7865 -1.6336,-1.6336 2.3593,-3.9766 7.972,-4.6779 8.2251,-1.0277 25.4476,0.2689 27.2286,2.0499 1.7525,1.7525 1.3124,1.9653 -7.4123,3.5836 -8.8576,1.6429 -15.3283,1.8933 -21.474,0.8309 z m 54.5532,-0.7675 c -12.9204,-2.701 -11.2411,-4.9038 4.3977,-5.7686 11.584,-0.6405 20.3746,0.509 20.8005,2.7201 0.2275,1.1817 -1.2185,1.8512 -5.9887,2.7726 -10.3036,1.9902 -10.9636,1.9997 -19.2095,0.2759 z m 51.4208,0.3192 c -2.475,-0.7089 -5.5455,-1.3252 -6.8233,-1.3694 -1.6506,-0.057 -2.2277,-0.5872 -1.9932,-1.8305 0.262,-1.3889 1.9279,-1.9366 8.0733,-2.6544 8.4108,-0.9824 23.2432,0.2303 23.2432,1.9003 0,1.3824 -11.3427,5.4008 -15,5.314 -1.65,-0.039 -5.025,-0.6511 -7.5,-1.36 z m 297.66669,0.8834 c -1.7354,-1.7354 -0.1125,-2.3333 6.3333,-2.3333 5.5556,0 7,0.3095 7,1.5 0,1.1754 -1.3704,1.5 -6.3333,1.5 -3.4834,0 -6.6334,-0.3 -7,-0.6667 z m 66.3334,-0.8333 c 1.345,-1.6206 6.5386,-2.0555 7.4248,-0.6218 0.5104,0.826 -3.8697,2.1218 -7.1722,2.1218 -1.2177,0 -1.2649,-0.2802 -0.2526,-1.5 z m -869.2448,-1.3368 c -2.60961,-0.9147 -4.74711,-2.0116 -4.75,-2.4374 -0.003,-0.4258 7.53225,-0.6508 16.74475,-0.5 10.31721,0.1689 16.75,0.6582 16.75,1.2742 0,0.55 -2.7,1.2742 -6,1.6094 -16.85464,1.7117 -18.00747,1.7144 -22.74475,0.054 z m 596.24471,-1.0539 c -1.5089,-0.4172 -2.6238,-1.545 -2.8123,-2.845 -0.5064,-3.4927 5.6677,-4.511 24.9238,-4.1109 14.7057,0.3056 16.9293,0.5721 18.7844,2.2516 2.7217,2.4641 2.6704,4.21 -0.1459,4.9647 -3.0668,0.8219 -37.6349,0.601 -40.75,-0.2604 z m -49.4885,-1.0907 c -0.351,-0.568 -0.027,-1.2675 0.7211,-1.5544 2.5008,-0.9596 30.2674,-0.01 30.2674,1.0358 0,1.3879 -30.1395,1.8923 -30.9885,0.5186 z m 117.4885,-4.8547 c -1.7665,-0.5329 -2.5,-1.4611 -2.5,-3.1642 0,-2.0006 0.6799,-2.5577 4,-3.278 6.6323,-1.4389 21.7729,-0.4282 24.9704,1.6669 2.5277,1.6563 2.626,1.9436 1.1648,3.4049 -1.2458,1.2457 -4.179,1.6539 -13.3656,1.8601 -6.4732,0.1454 -12.8946,-0.075 -14.2696,-0.4897 z m 36.8232,0.177 c -4.3307,-0.7436 -5.1833,-2.6539 -2.3659,-5.3007 4.7816,-4.4921 26.98279,-3.8233 29.50469,0.8888 1.8507,3.4581 -1.2478,4.5523 -13.36289,4.7189 -6.1045,0.084 -12.3036,-0.054 -13.7759,-0.307 z m 37.17679,-0.1833 c -4.0245,-1.2038 -3.4203,-5.3438 1,-6.8512 4.3605,-1.487 15.2844,-1.6329 20.1925,-0.2697 3.9231,1.0896 5.8865,4.2843 3.8715,6.2993 -1.3136,1.3136 -21.2355,1.9666 -25.064,0.8216 z m 258.0232,-12.4076 c 0.013,-0.6875 2.9809,-4.625 6.5959,-8.75 3.615,-4.125 8.432,-11.1 10.7044,-15.5 3.8207,-7.3977 4.1334,-8.6022 4.1534,-16 0.018,-6.59764 -0.4438,-8.99302 -2.6335,-13.66525 -1.4603,-3.1159 -3.8892,-6.4909 -5.3975,-7.5 -1.5083,-1.00909 -10.196,-5.23632 -19.306,-9.39384 -15.8157,-7.21782 -16.5653,-7.68982 -16.6017,-10.45366 -0.05,-3.78642 -3.6525,-6.20735 -17.0082,-11.42915 -10.5892,-4.14019 -36.155,-10.87527 -51.4134,-13.5444 -11.9737,-2.09454 -55.2697,-2.11601 -65.4087,-0.0324 -5.9315,1.21894 -9.4212,1.29069 -19.7079,0.40523 -6.875,-0.5918 -33.1023,-1.30038 -58.283,-1.57464 -41.6921,-0.45409 -46.01179,-0.3487 -48.34409,1.17954 -1.6411,1.07529 -3.4775,1.44822 -5.1117,1.03807 -1.4027,-0.35206 -4.6951,-0.0904 -7.3164,0.58139 -4.2567,1.09096 -5.2808,0.9987 -9.5823,-0.86329 -4.5118,-1.95304 -5.0388,-1.98577 -8.3393,-0.51796 -5.3193,2.36564 -9.4064,2.64076 -12.8414,0.86443 -4.1866,-2.16498 -5.7616,-2.01622 -9.5929,0.90601 -3.8337,2.92411 -9.9317,3.34904 -13.3818,0.93247 -4.1112,-2.87959 -6.0894,-1.51392 -12.4104,8.56753 -6.5514,10.44894 -9.461,14 -11.471,14 -1.7636,0 -1.7543,-0.0613 1.6743,-11 3.2796,-10.4631 3.5894,-13.01061 1.8,-14.8 -0.9135,-0.91354 -20.4941,-1.2 -82.0236,-1.2 -68.1103,0 -82.7792,0.25083 -93.2556,1.5946 -11.3784,1.45948 -12.9707,1.45948 -18.7902,0 -9.2258,-2.31372 -102.9104,-2.38014 -111.7898,-0.0792 -4.6302,1.1998 -7.8665,1.32981 -15.5411,0.62432 -7.1757,-0.65964 -11.2781,-0.54803 -15.7964,0.42972 -3.3568,0.72643 -17.5783,2.5274 -31.6033,4.00217 -14.025,1.47477 -26.4563,3.04198 -27.6251,3.4827 -1.4064,0.53027 -2.3568,2.03588 -2.8099,4.45129 -0.6758,3.60199 -0.7354,3.64144 -4.5342,2.99964 -2.6361,-0.44537 -4.80789,-0.15469 -6.89041,0.92222 -4.12442,2.13282 -9.02471,1.96712 -12.64035,-0.42742 -3.88535,-2.57316 -4.96113,-2.5128 -8.91111,0.5 -4.09384,3.12252 -8.46643,3.20279 -13.61841,0.25 -2.79485,-1.60183 -4.32391,-1.96192 -5.30786,-1.25 -5.71042,4.13173 -7.29511,4.9 -10.10709,4.9 -1.75177,0 -4.621,-1.02249 -6.37607,-2.27221 -1.75506,-1.24972 -3.94835,-2.12636 -4.87397,-1.9481 -0.92563,0.17825 -3.16751,2.79825 -4.98197,5.82221 -3.44624,5.74346 -6.06646,7.69446 -8.8825,6.61384 -1.96447,-0.75384 -1.76889,-1.94343 2.12437,-12.92117 2.74329,-7.73521 2.75068,-7.82295 0.82076,-9.75287 -1.52696,-1.52696 -4.7477,-2.27443 -14.9168,-3.46189 -7.13314,-0.83302 -16.79435,-2.23669 -21.46935,-3.11933 -8.85372,-1.67159 -10.98332,-1.65214 -56,0.51142 -22.14569,1.06435 -54.05347,0.68571 -66.5,-0.78913 -4.95,-0.58654 -19.8,-1.07353 -33,-1.0822 -32.84368,-0.0216 -40.19507,-1.37681 -52.82891,-9.73913 -8.21262,-5.43591 -13.79269,-12.18563 -18.40385,-22.26152 -1.88777,-4.125 -3.90098,-8.37076 -4.47379,-9.43502 -1.27216,-2.3636 -1.10118,-65.62537 0.18652,-69.01226 1.1087,-2.91611 13.699,-8.27272 15.41587,-6.55876 0.74485,0.74359 1.26688,12.7204 1.60417,36.80417 l 0.5,35.70187 2.67018,5.6965 c 3.40624,7.26678 10.36654,14.22708 17.63332,17.63332 l 5.6965,2.67018 500.49995,0 500.50009,0 5.6965,-2.67018 c 7.2668,-3.40624 14.2271,-10.36654 17.6333,-17.63332 l 2.6702,-5.6965 0.2647,-128.61533 c 0.299,-145.26799 1.0323,-132.76364 -7.5924,-129.47916 -2.5698,0.97864 -9.7502,3.53775 -15.9566,5.68691 -10.8972,3.7735 -11.7357,3.90758 -24.4385,3.90758 -11.7617,0 -14.5369,0.36202 -26.2157,3.41981 -7.1838,1.8809 -18.0115,4.16817 -24.0615,5.08282 -9.5406,1.44237 -34.8724,7.26043 -45.4935,10.44871 -4.5278,1.35917 -9.3175,1.33778 -10.703,-0.0478 -0.6031,-0.60305 -4.4056,-1.71932 -8.45,-2.4806 -8.3507,-1.57185 -13.8655,-3.69987 -18.6657,-7.20261 -5.5026,-4.01529 -5.7133,-6.15044 -1.5609,-15.8163 2.8771,-6.69732 5.2808,-10.26628 11.57,-17.17882 8.1881,-8.99967 11.3391,-14.0978 15.4286,-24.96264 2.6196,-6.95956 3.0038,-11.2332 1.1744,-13.06259 -3.1552,-3.15522 -7.5572,-0.16326 -20.4211,13.87996 -8.2581,9.01508 -9.7191,11.21112 -13.8054,20.75104 -7.3242,17.09909 -5.9903,15.669 -14.6152,15.669 -6.2532,0 -7.9973,0.38443 -10.7942,2.37929 -2.9519,2.10537 -4.0456,2.30783 -9.5,1.7586 -5.31269,-0.53495 -6.92369,-0.26587 -11.66409,1.94825 -4.5541,2.12713 -6.3747,2.46075 -10.5862,1.9399 -3.4503,-0.42671 -6.5059,-0.13469 -9.5,0.90791 -6.248,2.17566 -8.722,1.94932 -12.8194,-1.17283 -5.4971,-4.18873 -7.3616,-6.69523 -15.6104,-20.98515 -6.7934,-11.7686 -11.9524,-18.27595 -14.4893,-18.27595 -2.0448,0 -3.9947,3.41979 -3.9947,7.00633 0,5.3019 1.1899,8.07609 7.9318,18.49367 3.2035,4.95 8.4115,13.45949 11.5733,18.90997 3.1618,5.45049 7.5422,11.85571 9.7343,14.23384 4.2816,4.64502 4.551,7.42297 1.0586,10.91541 -1.8835,1.88351 -1.8173,1.8855 -34.298,-1.02911 -14.7301,-1.32178 -18.2663,-1.96279 -22.3416,-4.04987 -4.2655,-2.18451 -7.5971,-2.71502 -28,-4.45862 -39.1311,-3.34409 -43.0608,-3.83653 -48.2023,-6.04044 -2.6875,-1.15203 -7.1521,-2.57919 -9.9213,-3.17147 -7.6087,-1.6274 -35.5699,-12.8596 -38.455,-15.44765 -1.1663,-1.04618 -1.2204,-2.22084 -0.3026,-6.56805 0.6148,-2.9117 1.6406,-9.34401 2.2796,-14.29401 1.5474,-11.98682 2.3646,-17.26804 5.3892,-34.82947 1.4047,-8.15621 2.5565,-17.15621 2.5595,-20 0.01,-5.89248 4.3579,-29.6125 5.9934,-32.66845 0.5962,-1.11393 2.7528,-2.80825 4.7926,-3.76514 4.206,-1.97315 5.1218,-5.26997 3.2983,-11.87389 -1.3251,-4.79913 0.037,-6.71369 4.1367,-5.8133 4.4479,0.97691 7.0663,-1.85727 6.2392,-6.75318 -0.5015,-2.96836 -0.3199,-3.79657 0.8325,-3.79657 2.3654,0 4.7013,6.27796 4.7074,12.65113 0.01,10.91686 3.8234,18.34887 9.4138,18.34887 3.5559,0 4.3455,-2.31493 4.0935,-12 -0.1966,-7.556 -0.6261,-9.3024 -3.867,-15.72504 -4.5883,-9.09279 -4.6347,-10.96385 -0.3162,-12.76821 1.8312,-0.76516 3.9459,-2.13379 4.6991,-3.0414 1.9993,-2.40907 2.1505,-14.86643 0.2604,-21.46535 -0.9194,-3.20994 -1.5211,-8.81388 -1.4452,-13.4589 0.1548,-9.47019 -1.8563,-16.10918 -10.276,-33.92238 -4.6204,-9.77522 -6.8246,-13.14314 -12.4352,-19 -7.3248,-7.64646 -11.9323,-14.0232 -14.1755,-19.61872 -0.7717,-1.925 -4.8682,-6.93869 -9.1033,-11.14154 -8.1773,-8.11511 -9.8377,-11.43416 -9.8484,-19.68538 0,-3.44479 -0.6015,-4.92286 -2.9286,-7.25 -3.2514,-3.25135 -6.7249,-3.70806 -13.2754,-1.74549 -3.1346,0.93916 -4.6766,0.90091 -7.616,-0.18894 -2.027,-0.75159 -5.9356,-1.44259 -8.6856,-1.53555 -4.6089,-0.15581 -12.5365,-2.29858 -16.75,-4.52739 -0.9625,-0.50914 -2.5375,-1.34347 -3.5,-1.85407 -0.9625,-0.51059 -3.775,-1.85098 -6.25,-2.97865 -2.475,-1.12766 -7.3411,-4.5349 -10.8137,-7.57164 -3.4726,-3.03674 -7.0406,-5.52135 -7.929,-5.52135 -0.8884,0 -3.0775,-0.52876 -4.8647,-1.17502 -2.6547,-0.95995 -4.1987,-0.86844 -8.4358,0.5 -7.8182,2.52498 -13.2654,2.16967 -19.8299,-1.29348 -7.6869,-4.05531 -19.6013,-9.0315 -21.6239,-9.0315 -0.914,0 -4.5826,1.16849 -8.1524,2.59664 -3.5698,1.42815 -6.7809,2.30634 -7.1357,1.95152 -0.3549,-0.35482 -1.1108,-2.08581 -1.68,-3.84665 -1.2714,-3.93345 -4.7863,-4.64102 -11.0918,-2.2329 -4.4324,1.69272 -5.8742,3.59771 -4.9432,6.53108 0.7637,2.40606 -1.9647,4.33577 -5.2439,3.70892 -5.2222,-0.9983 -8.5835,1.48632 -14.0951,10.419 -4.2678,6.91663 -5.1609,9.16559 -5.1609,12.99578 0,5.682 -1.2116,6.80644 -8.3831,7.77963 -3.0181,0.40956 -6.1915,1.32903 -7.0521,2.04326 -2.3978,1.99001 -1.866,4.80022 1.1852,6.26263 1.5125,0.72492 2.75,1.98698 2.75,2.80456 0,1.74894 -9.3905,6.53023 -14.6924,7.48084 -6.6496,1.19223 -7.0831,4.11363 -1.3994,9.43 1.4255,1.33338 2.5918,3.08305 2.5918,3.88817 0,0.80512 -1.8,3.41663 -4,5.80335 -4.5409,4.92629 -4.5997,5.25713 -2.3652,13.29427 2.0209,7.26873 1.3367,10.32333 -3.3597,14.99884 -4.6015,4.58101 -12.2751,15.72439 -12.2751,17.82553 0,2.75258 3.1397,5.25026 8.5923,6.83537 7.4228,2.15786 8.0012,3.20826 4.9384,8.96851 -1.3919,2.61774 -2.5407,6.38001 -2.5529,8.36059 -0.012,2.02532 -0.8779,4.695 -1.9778,6.10106 -1.0755,1.375 -1.9655,3.93741 -1.9777,5.69424 -0.03,4.28873 -3.3894,7.83435 -9.5223,10.04984 -4.5646,1.64897 -5.0274,2.10878 -5.3156,5.28108 -0.4586,5.04981 -4.9011,13.91211 -7.4846,14.9313 -1.2099,0.47727 -4.7715,1.85318 -7.9147,3.05757 -8.7747,3.36222 -9.0016,8.98597 -0.3626,8.98597 4.8819,0 6.5775,1.33533 6.5775,5.17976 0,5.02651 2.9679,10.64199 6.8509,12.9628 5.605,3.34993 8.0845,5.92278 10.1009,10.48133 1.8339,4.14582 2.5471,4.62297 8.7868,5.87839 5.9867,1.20452 5.5099,4.52784 -1.3424,9.35784 -4.069,2.86808 -5.0857,3.15902 -8.9919,2.57325 -4.0942,-0.61396 -4.4043,-0.50236 -4.4043,1.58505 0,2.78404 3.5467,8.66862 6.0237,9.99423 2.5056,1.34095 7.1321,1.1904 9.0488,-0.29445 2.1812,-1.68974 8.7874,-12.19375 11.4708,-18.23881 1.2257,-2.76134 2.6965,-8.16134 3.2683,-12 0.5719,-3.83867 1.6092,-8.86585 2.3052,-11.17153 1.0856,-3.59591 0.9361,-6.65372 -1.0506,-21.5 -1.2739,-9.51932 -2.7196,-18.3751 -3.2127,-19.6795 -1.4165,-3.74754 0.5886,-5.46824 4.1975,-3.60202 1.5673,0.81051 3.5901,1.47366 4.4951,1.47366 3.4421,0 7.4676,-3.52326 9.9034,-8.66782 1.8856,-3.98239 3.4624,-5.75672 6.4874,-7.29994 4.1665,-2.12563 6.0631,-4.56914 6.0631,-7.81151 0,-3.99186 3.2225,-5.41634 10.6559,-4.7104 4.9914,0.47403 7.3211,0.28991 8.606,-0.68017 2.363,-1.78408 6.7831,-13.96743 7.6217,-21.00827 0.372,-3.12296 1.3835,-6.49796 2.2478,-7.5 0.8643,-1.00204 2.5914,-3.68134 3.838,-5.954 2.5534,-4.65529 8.2368,-8.36789 12.8098,-8.36789 3.3265,0 4.3533,1.46566 3.1527,4.5 -1.5764,3.98437 -0.8423,6.22138 4.1944,12.78075 4.0724,5.30352 5.8334,6.80865 8.5655,7.3212 2.5364,0.47584 4.0667,1.63933 5.83,4.43258 1.6289,2.58022 3.3899,4.00679 5.5252,4.47579 2.6466,0.58128 3.0279,1.02308 2.4502,2.83904 -1.7577,5.5254 -1.6753,7.47245 0.4039,9.55167 1.1544,1.15443 3.1974,2.09897 4.5399,2.09897 3.2982,0 3.966,1.4493 2.0295,4.4047 -1.2127,1.85093 -1.3539,2.94454 -0.5693,4.41059 1.2912,2.41274 2.5246,2.89484 10.7788,4.21347 8.4561,1.35086 11.4882,2.95369 18.8402,9.95946 3.3111,3.15516 7.9086,6.70002 10.2166,7.87748 7.023,3.58289 8.3448,9.20657 3.3402,14.21122 -4.7339,4.73388 -6.8917,4.23371 -25.5384,-5.91983 -2.6189,-1.42605 -5.726,-2.15709 -9.1682,-2.15709 -6.4152,0 -8.3704,0.69714 -8.3704,2.98454 0,2.59675 1.8908,3.74146 7.5,4.54079 5.5201,0.78661 18.4828,7.25254 18.4934,9.22467 0.01,1.72313 -2.5819,1.5657 -5.4796,-0.33293 -3.0827,-2.01989 -6.3275,-1.03724 -7.5965,2.30058 -1.3371,3.5169 -0.4741,5.54658 4.1254,9.70196 2.1766,1.96635 3.9573,4.27432 3.9573,5.12881 0,2.31923 -6.0267,4.39988 -14.748,5.09155 -4.2636,0.33814 -9.9336,1.5319 -12.6001,2.6528 -4.2482,1.78577 -5.2828,1.88084 -8.3599,0.76817 -3.0165,-1.09079 -3.7371,-1.04438 -5.1107,0.32918 -3.5057,3.50577 3.1538,18.98499 11.8255,27.48671 l 5.7356,5.62317 0.4732,8.41773 c 0.4264,7.58692 0.7365,8.64431 3.1421,10.7135 3.4844,2.99717 5.3778,2.15172 7.7915,-3.47908 1.0748,-2.5075 5.1453,-8.99782 9.0455,-14.42293 l 7.0913,-9.86384 0.8212,-8.89975 c 0.4517,-4.89486 1.9073,-12.17708 3.2348,-16.18269 1.3274,-4.00562 2.7182,-9.40121 3.0906,-11.99021 0.7689,-5.34486 4.0201,-8.79691 10.2086,-10.8393 3.2643,-1.07734 3.8463,-1.00725 5.0254,0.60519 0.7334,1.003 1.3334,2.47058 1.3334,3.26129 0,0.79071 1.0921,4.8672 2.4269,9.05887 1.668,5.2383 2.7151,11.73413 3.3488,20.7754 1.244,17.74826 3.6056,21.7734 16.6442,28.36885 1.6059,0.81233 3.1008,2.02413 3.3219,2.69287 0.2212,0.66875 -1.5923,3.36875 -4.0301,6 -5.8703,6.3363 -7.0803,8.72676 -5.7117,11.2841 0.8141,1.52104 2.0939,2 5.3441,2 5.2226,0 6.4856,0.93756 11.0756,8.22151 1.9829,3.14683 4.5296,6.21613 5.6592,6.82068 2.7149,1.45299 11.9238,15.62899 11.9114,18.33612 -0.026,5.56233 -8.4967,18.62169 -12.0791,18.62169 -2.2187,0 -2.3287,-0.87421 -0.7664,-6.08866 0.9601,-3.20453 0.8757,-4.23117 -0.5231,-6.36602 -2.0603,-3.14443 -5.6759,-3.32171 -11.1217,-0.54532 -2.3841,1.2155 -5.8992,2.00046 -8.9614,2.00118 -4.9543,10e-4 -17.3934,2.08398 -20.7505,3.4745 -4.1371,1.7136 -2.6857,7.57957 2.7579,11.14636 1.3849,0.90743 5.7661,2.01373 9.736,2.45844 15.9133,1.78258 18.7982,2.2402 19.3064,3.06245 0.2913,0.47139 -0.059,0.86115 -0.7793,0.86613 -14.2639,0.0988 -42.0519,2.49654 -53.8091,4.6431 -16.9406,3.09291 -19.7203,2.81241 -33.8063,-3.41146 -11.0473,-4.88122 -30.526,-17.58539 -35.5539,-23.18864 -6.4149,-7.14885 -12.6398,-24.38059 -12.6398,-34.98952 0,-7.9705 -4.0405,-11.16241 -9.1151,-7.2007 -1.3117,1.02401 -4.9917,3.32789 -8.1779,5.11973 -3.2925,1.85167 -7.8247,5.65437 -10.5,8.81002 -2.5888,3.05368 -7.6712,8.7373 -11.2941,12.63028 -11.1049,11.93266 -20.0243,23.64011 -22.9093,30.07017 -2.5305,5.64001 -3.3391,6.47686 -10.1268,10.48042 -4.0572,2.39303 -8.4499,5.1782 -9.7616,6.18926 -4.5225,3.48601 -4.9664,2.7057 -5.3534,-9.41172 -0.3624,-11.34401 -1.0935,-14.53596 -5.2109,-22.75 -1.8281,-3.64698 -2.8247,-4.55734 -5.2575,-4.80249 -2.7423,-0.27633 -3.1872,0.12813 -5.1442,4.67731 -1.1782,2.73889 -3.9532,11.99576 -6.16658,20.57082 -4.80173,18.60263 -7.54032,26.26082 -9.80596,27.42135 -0.92214,0.47234 -3.63041,1.15743 -6.01839,1.5224 -2.38797,0.36498 -6.09216,1.55658 -8.23153,2.64801 -3.0759,1.5692 -5.00246,1.85364 -9.20762,1.3594 -4.26275,-0.501 -6.3605,-0.17647 -10.57304,1.63572 -4.80401,2.06663 -5.70124,2.15449 -10.45062,1.02337 -4.45598,-1.06125 -5.83588,-1.00153 -9.69542,0.41964 -2.475,0.91135 -5.27426,1.9012 -6.22058,2.19967 -1.20676,0.38062 -4.04621,-1.80429 -9.50806,-7.31626 -8.0595,-8.13345 -22.94416,-18.99962 -30.76483,-22.45908 -3.46827,-1.53418 -4.93809,-1.73927 -6.49465,-0.90622 -3.53047,1.88945 -2.31167,5.40483 5.77759,16.66423 6.31938,8.79592 9.3862,12.03143 16.25,17.14379 9.12342,6.7954 15.51955,12.60019 17.12472,15.54148 1.71133,3.1358 0.0838,6.24417 -6.05335,11.56084 l -5.90393,5.11466 -17.35346,1.47798 c -20.51338,1.74711 -34.85827,1.91394 -38.08678,0.44293 -2.25258,-1.02635 -9.53316,-0.53341 -45.26667,3.06478 -17.70106,1.78241 -42.47402,6.66422 -63.5,12.51344 -27.53971,7.66127 -24.76147,7.29737 -25.4718,3.33641 -0.33084,-1.8448 -0.47253,-92.04756 -0.31486,-200.45057 0.23123,-158.98658 0.53572,-197.39648 1.57477,-198.64838 1.46285,-1.76253 43.222,-22.74334 45.33514,-22.77747 0.75721,-0.0122 2.50175,-0.90222 3.87675,-1.97776 3.86295,-3.02164 0.10781,-2.59191 -7.33826,0.83978 -5.81722,2.68101 -19.96168,7.85351 -29.45027,10.76972 -4.16623,1.28044 -4.31494,1.24857 -5.21463,-1.11781 -1.37401,-3.61391 -4.44638,-3.83552 -15.20948,-1.09705 -14.83624,3.77481 -45.28947,16.89103 -78.57071,33.84044 -7.30585,3.7207 -13.71835,6.76492 -14.25,6.76492 -2.28922,0 -0.58349,-3.75304 4.64924,-10.22949 5.04829,-6.24817 8.6783,-9.26422 25.88412,-21.50622 l 4,-2.84601 0.59308,-36.95914 c 0.46517,-28.98782 0.92419,-38.06592 2.12826,-42.09075 4.07465,-13.62031 13.94939,-26.02726 25.66004,-32.24013 12.7477,-6.76306 7.63332,-6.42833 104.61861,-6.84731 48.4,-0.20909 89.9125,-0.10527 92.25,0.23072 2.3375,0.33598 4.24799,1.1458 4.24552,1.7996 -0.002,0.6538 -1.91496,4.0898 -4.25,7.63555 -3.30215,5.01431 -4.98556,6.63627 -7.576,7.29944 -1.83176,0.46895 -22.60187,0.71788 -46.15581,0.55319 l -42.82533,-0.29945 -6.50764,-6.25 c -3.5792,-3.4375 -7.19922,-6.25 -8.0445,-6.25 -2.28499,0 -3.46492,2.85837 -2.90455,7.03625 0.33363,2.48739 0.0487,3.99346 -0.86741,4.5841 -0.75035,0.48381 -15.76428,1.10465 -33.36428,1.37965 l -31.99999,0.5 -5.94553,2.91921 c -7.55878,3.71131 -13.42395,9.57648 -17.13526,17.13526 l -2.91921,5.94553 -0.30232,31.18682 c -0.36229,37.37349 -1.27664,35.18592 12.50813,29.92545 4.86969,-1.85835 13.34053,-4.5913 18.82407,-6.07324 15.24529,-4.12006 14.27131,-2.72595 14.64938,-20.96851 0.22778,-10.99104 0.697,-15.85201 1.61907,-16.7733 0.98415,-0.9833 8.70194,-1.41822 31.89241,-1.79722 27.84627,-0.45509 30.69354,-0.65874 31.70166,-2.26739 0.9007,-1.43726 0.11248,-3.63543 -4.21977,-11.76794 -9.44039,-17.72155 -5.56185,-14.6746 11.97464,9.4072 5.255,7.21637 6.94181,10.26127 6.27073,11.31948 -1.04441,1.64694 -6.449,4.61348 -17.66801,9.69784 -4.2625,1.93172 -7.75,3.98441 -7.75,4.56152 0,1.49102 1.46842,1.30365 10.5,-1.33983 8.79583,-2.57448 10.5,-2.45333 10.5,0.74648 0,1.17886 0.66719,5.29322 1.48264,9.14301 2.8707,13.55277 1.78995,22.12792 -5.91749,46.95214 -6.83068,22.00031 -7.04871,25.54749 -1.57034,25.54749 5.95338,0 9.59359,-8.45408 14.12554,-32.80536 3.67287,-19.73529 3.84511,-24.28085 1.44723,-38.19464 -3.05007,-17.69819 -3.03085,-16.46789 -0.27687,-17.72269 5.33774,-2.43203 15.98543,-4.48877 19.95345,-3.85426 3.20212,0.51204 5.0219,0.12455 8.87362,-1.88946 3.74418,-1.95777 6.32883,-2.53359 11.37247,-2.53359 5.66532,0 7.07384,-0.39608 10.66845,-3 3.53731,-2.56242 5.04217,-3 10.31702,-3 7.5872,0 8.97307,-1.25086 13.4764,-12.16351 3.96705,-9.61312 10.39301,-20.33649 12.18661,-20.33649 1.68111,0 1.68056,0.20557 -0.0408,15.27075 -1.12481,9.84419 -1.15991,13.07902 -0.17751,16.35797 0.84097,2.8069 1.00594,7.17079 0.52666,13.93106 l -0.69789,9.84384 8.39709,8.79819 c 9.91352,10.38706 17.08694,19.42914 22.25588,28.05347 4.07523,6.79949 6.57312,8.86944 8.44464,6.99792 1.70089,-1.70089 1.41356,-5.69906 -0.96286,-13.39786 -3.41079,-11.04982 -9.30604,-21.59919 -18.35944,-32.85364 -4.65663,-5.78875 -8.92963,-11.39017 -9.49555,-12.44761 -1.71193,-3.19876 -1.2631,-8.85841 0.78963,-9.957 2.54658,-1.36289 24.02067,-3.15512 40.68142,-3.39528 l 14,-0.20181 -0.28785,2.75 c -0.15832,1.5125 -0.15832,2.86035 0,2.99522 0.15832,0.13487 162.82791,0.47237 361.48791,0.75 294.50479,0.41157 361.44009,0.74481 362.49999,1.8047 1.8732,1.87315 2.4046,327.51842 0.5401,331.04758 -1.2356,2.33888 -5.3356,4.17462 -18.2401,8.16669 -22.2768,6.89149 -46.5,16.6154 -46.5,18.66653 0,1.60272 2.347,1.68134 7.0066,0.23469 1.9214,-0.59652 11.3684,-1.47386 20.9934,-1.94966 12.1938,-0.60277 19.7741,-1.48387 25,-2.9059 26.0023,-7.07551 83.1596,-21.05985 86.0766,-21.05985 2.9708,0 2.381,1.09108 -3.5685,6.60178 l -5.5081,5.10179 -0.01,129.89821 c -0.01,130.67428 -0.1607,136.87894 -3.6324,147.2041 -2.0462,6.08515 -9.1039,16.7107 -14.2821,21.5017 -2.2428,2.07517 -4.0779,4.66454 -4.0779,5.75416 0,2.21441 -0.2616,2.08863 16.5,7.93419 15.3802,5.36381 35.8762,15.57641 44.3658,22.10628 3.6488,2.80652 9.1152,7.64414 12.1476,10.75027 3.0324,3.10614 8.0949,7.81095 11.25,10.45515 l 5.7366,4.80763 0,6.38032 c 0,3.50917 0.6842,9.33064 1.5205,12.93658 1.6025,6.9098 1.3076,9.8519 -1.5605,15.5678 -3.5985,7.1719 -14.0224,15.4595 -28.8739,22.9565 -6.6214,3.3425 -8.0977,3.6709 -8.063,1.7935 z m -140.0231,-0.75 c 0.825,-0.5332 2.4,-0.9694 3.5,-0.9694 1.1,0 2.675,0.4362 3.5,0.9694 1.0779,0.6966 0.093,0.9694 -3.5,0.9694 -3.5929,0 -4.5779,-0.2728 -3.5,-0.9694 z m -423.82649,-3.5003 c -4.333,-1.9115 -3.9364,-4.6319 0.8325,-5.7101 3.437,-0.7771 25.771,-0.1094 29.299,0.876 0.9928,0.2773 1.6306,1.0284 1.4175,1.6693 -0.2341,0.7039 -4.9071,1.6044 -11.805,2.2749 -6.2797,0.6105 -12.5426,1.3906 -13.9176,1.7336 -1.3977,0.3487 -3.9667,-0.023 -5.8264,-0.8437 z m 48.0764,0.045 c -3.6526,-1.6278 -4.0079,-2.675 -1.5854,-4.6725 2.431,-2.0043 31.1478,-1.4886 33.2333,0.5969 1.9211,1.9211 1.3992,2.0649 -12.3979,3.4179 -6.05,0.5933 -12.125,1.3099 -13.5,1.5924 -1.375,0.2826 -3.9625,-0.138 -5.75,-0.9347 z m -432.08371,-0.6573 c -1.28356,-0.4868 -2.14756,-1.4482 -1.92001,-2.1364 0.52688,-1.5933 14.61357,-2.2914 16.10686,-0.7981 0.7292,0.7292 0.11286,1.0469 -2.03098,1.0469 -1.69283,0 -4.59533,0.6239 -6.45,1.3864 -2.25286,0.9262 -4.14673,1.0926 -5.70587,0.5012 z m 46.3624,-0.243 c -1.15,-0.8409 -1.61043,-1.9891 -1.21297,-3.0249 0.56822,-1.4807 2.48009,-1.6384 16.91248,-1.3946 18.98498,0.3207 21.99663,1.9628 5.27184,2.8745 -6.05,0.3298 -12.26679,1.1173 -13.8151,1.75 -3.63527,1.4856 -4.89358,1.4495 -7.15625,-0.205 z m 47.47135,-0.1444 c -0.99413,-1.1978 -0.9899,-1.8072 0.021,-3.0253 1.052,-1.2676 3.818,-1.4787 16.37244,-1.25 17.72513,0.323 20.36387,1.9726 4.60658,2.8798 -5.775,0.3325 -11.76679,1.12 -13.3151,1.75 -3.80981,1.5503 -6.19543,1.4402 -7.6849,-0.3545 z m 47.25,0.8377 c -1.77966,-0.7181 -1.54885,-4.009 0.33179,-4.7307 2.59267,-0.9949 14.25024,-0.6878 14.91821,0.393 0.35147,0.5687 -0.5029,1 -1.98082,1 -1.42937,0 -4.363,0.9 -6.51918,2 -4.05646,2.0695 -4.64669,2.1864 -6.75,1.3377 z m 50.28506,-0.6884 c -1.1399,-0.8335 -1.6157,-1.9968 -1.2289,-3.0047 0.5481,-1.4285 2.6723,-1.6446 16.1625,-1.6446 13.139,0 15.5313,0.2311 15.5313,1.5 0,1.2172 -1.6494,1.5045 -8.75,1.5239 -8.0487,0.022 -12.3944,0.5898 -17.8024,2.3264 -1.1653,0.3742 -2.8565,0.071 -3.9125,-0.701 z m 96.9917,-0.2654 c -3.344,-3.344 -1.3551,-3.8839 14.3066,-3.8839 17.8532,0 21.1898,1.682 5.1666,2.6045 -5.775,0.3325 -11.7667,1.12 -13.3151,1.75 -3.6749,1.4954 -4.2349,1.4526 -6.1581,-0.4706 z m 46.6079,-0.1322 c -0.5473,-1.0227 -0.6574,-2.4059 -0.2446,-3.0739 2.5966,-4.2014 28.5986,-4.2413 31.1903,-0.048 1.6868,2.7295 -0.3608,3.173 -20.2654,4.3894 -8.7655,0.5356 -9.7796,0.4153 -10.6803,-1.2676 z m 144.3065,0.3094 c -1.8542,-1.3744 -1.8623,-1.5189 -0.1793,-3.2261 1.56,-1.5825 3.4414,-1.7554 16.4291,-1.5094 8.067,0.1528 15.044,0.5106 15.5045,0.7952 2.1064,1.3018 -0.8572,2.3792 -6.5444,2.3792 -3.427,0 -8.8224,0.675 -11.9897,1.5 -7.2186,1.8802 -10.7442,1.8965 -13.2202,0.061 z m -241.0612,-1.0132 c -0.3064,-0.7987 -0.2657,-1.9237 0.09,-2.5 0.8266,-1.3373 14.2064,-1.38 15.0296,-0.048 0.3545,0.5735 -0.5799,1.0151 -2.1909,1.0354 -1.545,0.019 -3.9341,0.6786 -5.3091,1.4646 -3.2529,1.8596 -6.9159,1.8826 -7.62,0.048 z m 292.2595,0.7582 c -1.1262,-1.1261 -0.6859,-2.3061 0.8605,-2.3061 0.825,0 1.5,0.4234 1.5,0.941 0,1.261 -1.5615,2.1641 -2.3605,1.3651 z m -580.63946,-1.5825 c 0,-1.9054 2.10967,-2.7236 7.02277,-2.7236 5.10482,0 5.93121,1.5883 1.20658,2.319 -2.05114,0.3172 -4.74185,0.8777 -5.97935,1.2455 -1.63504,0.486 -2.25,0.2562 -2.25,-0.8409 z m 878.42525,-9.0578 c -0.3313,-0.8635 -0.311,-2.0416 0.045,-2.6179 0.7934,-1.2838 21.1733,-1.4334 21.9596,-0.1612 1.1543,1.8678 -2.276,2.9349 -11.6661,3.6292 -8.3616,0.6182 -9.8213,0.4982 -10.3387,-0.8501 z m -318.92529,-13.1501 c -4.3518,-2.0175 -4.7407,-2.428 -3,-3.1668 1.1,-0.4669 15.7682,-0.8489 32.5959,-0.8489 31.4103,0 33.9041,0.2936 33.9041,3.9916 0,2.0401 -6.1529,2.4902 -33,2.4142 -24.4821,-0.069 -25.6995,-0.1647 -30.5,-2.3901 z m -415.42099,0.2242 c -5.07307,-2.598 -3.64698,-3.7399 4.67103,-3.7399 9.23995,0 11.05026,0.9185 5.02883,2.5514 -2.35336,0.6381 -4.95383,1.4456 -5.77883,1.7944 -0.825,0.3487 -2.58946,0.076 -3.92103,-0.6059 z m 42.67103,-0.5824 c -2.6125,-0.8297 -4.75,-1.8796 -4.75,-2.333 0,-1.1913 19.75983,-1.0221 20.5,0.1755 0.33992,0.55 -0.25195,1 -1.31526,1 -1.06331,0 -3.67736,0.5999 -5.80901,1.3331 -3.30043,1.1352 -4.5808,1.1091 -8.62573,-0.1756 z m 44.49926,-0.024 c -3.4379,-0.8957 -6.1026,-2.0796 -5.9215,-2.6308 0.7463,-2.2715 28.4321,-2.2738 27.9678,0 -0.175,0.8563 -7.0121,2.804 -13.7956,3.9298 -1.1,0.1826 -4.8128,-0.4009 -8.2507,-1.2967 z m 50.5021,1.2848 c -0.3201,-0.3201 -2.7576,-1.137 -5.4167,-1.8153 -2.6591,-0.6783 -4.8347,-1.6539 -4.8347,-2.168 0,-2.4159 27.3793,-2.3524 28.1632,0.065 0.1783,0.55 -2.9604,1.7875 -6.9751,2.75 -7.767,1.8622 -10.0037,2.101 -10.9367,1.168 z m 42.7486,-1.3705 c -3.3,-0.9439 -6,-2.1282 -6,-2.6318 0,-0.5036 2.925,-1.1518 6.5,-1.4403 8.0515,-0.6499 21.5,0.2218 21.5,1.3936 0,0.8047 -12.7496,4.5915 -15,4.4552 -0.55,-0.033 -3.7,-0.8328 -7,-1.7767 z m 47,-0.1025 c -6.8214,-2.439 -4.4825,-3.0734 10.0583,-2.7283 13.1104,0.3111 15.124,1.5359 5.7373,3.4897 -7.3981,1.54 -9.6645,1.4307 -15.7956,-0.7614 z m 43,0.702 c -8.2026,-1.9048 -5.9145,-3.1242 6.4389,-3.4315 14.2391,-0.3541 16.3463,0.3013 9.0611,2.8187 -6.2497,2.1596 -8.462,2.2471 -15.5,0.6128 z m 50.2553,-0.5434 c -2.6096,-0.8819 -4.7471,-1.9411 -4.75,-2.3536 0,-0.4125 4.9447,-0.75 10.9947,-0.75 6.05,0 10.9962,0.3375 10.9915,0.75 -0.01,0.7123 -10.9379,4.4693 -11.9915,4.122 -0.275,-0.091 -2.6351,-0.8864 -5.2447,-1.7684 z m 47,0 c -2.6096,-0.8819 -4.7471,-1.9411 -4.75,-2.3536 -0.01,-0.9207 21.4014,-1.0099 22.3184,-0.093 0.7453,0.7453 -9.0256,4.3383 -11.3237,4.164 -0.825,-0.063 -3.6351,-0.8354 -6.2447,-1.7173 z m -509.00016,-0.9563 c -2.6097,-0.906 -4.7472,-1.9982 -4.75,-2.4271 -0.003,-0.429 5.7324,-0.654 12.7449,-0.5 13.18068,0.2893 16.77969,1.686 7.66362,2.9741 -2.70249,0.3819 -6.26362,0.8982 -7.91362,1.1473 -1.65,0.2491 -5.13521,-0.2883 -7.7449,-1.1943 z m 43.7449,0.4939 c -6.73638,-2.0297 -4.57585,-3.126 6.75,-3.425 5.9125,-0.1561 10.74615,0.069 10.74145,0.5 -0.009,0.7964 -10.66109,4.3997 -12.49145,4.2254 -0.55,-0.052 -2.8,-0.6376 -5,-1.3004 z m 50.25,0.2787 c -2.91642,-1.6986 -1.97537,-2.9199 2.25,-2.9199 4.29582,0 5.19477,1.2903 2.06574,2.9649 -2.30203,1.232 -2.12014,1.2339 -4.31574,-0.045 z m 629.62735,-47.68517 c -1.2534,-0.82029 -8.37739,-14.60479 -8.37739,-16.20973 0,-1.4599 3.48479,-1.26707 7.51219,0.41568 2.722,1.13732 4.1336,2.83116 6.7045,8.04471 2.7721,5.62149 3.0355,6.74392 1.77,7.54405 -1.7721,1.12041 -6.0353,1.23543 -7.6093,0.20529 z M 141.1018,885.9932 c -6.55578,-1.98478 -19.07675,-9.59169 -25.62465,-15.56784 -9.67692,-8.83194 -12.71609,-14.9526 -12.04964,-24.26707 0.78597,-10.98496 2.94482,-14.42107 19.33277,-30.77068 12.16311,-12.13466 15.8108,-15.17546 21.05856,-17.55491 3.49096,-1.58288 6.84124,-2.87796 7.44507,-2.87796 0.60383,0 10.17621,-4.00076 21.27196,-8.89058 38.28823,-16.87335 53.69588,-22.55729 83.17408,-30.68322 22.13936,-6.10292 34.37151,-8.39931 60.74698,-11.40428 21.81305,-2.48517 28.59429,-2.59914 29.40205,-0.49414 1.29204,3.367 3.89263,3.51019 26.80768,1.47606 12.41562,-1.10211 24.81697,-2.00384 27.55857,-2.00384 5.92284,0 6.00962,0.32685 2.98472,11.24256 -2.2718,8.19807 -2.64144,19.49795 -0.72362,22.12074 2.72972,3.73311 6.1352,-0.71816 10.22369,-13.3633 0.97806,-3.025 3.00089,-7.975 4.49517,-11 4.13033,-8.36134 4.40482,-10.54214 1.96204,-15.58825 -1.17081,-2.41856 -1.97766,-4.79523 -1.79301,-5.2815 0.18465,-0.48627 4.04074,-4.78649 8.56909,-9.55605 5.19243,-5.46902 9.85124,-9.38761 12.6138,-10.60962 4.10682,-1.81664 4.70401,-1.84158 9.56064,-0.39932 5.06119,1.50301 5.30718,1.47828 10.70754,-1.0765 4.67492,-2.21159 6.34149,-2.51312 10.80657,-1.95525 4.28422,0.53528 6.06071,0.26092 9.42547,-1.45565 2.28042,-1.16338 6.28516,-2.38568 8.89942,-2.71622 2.61426,-0.33054 5.72801,-1.20781 6.91944,-1.94949 2.7347,-1.70236 5.4859,-9.01726 10.36112,-27.54805 4.2623,-16.20116 6.4801,-22.28657 7.8203,-21.45823 1.627,1.00554 2.1169,8.05351 1.1207,16.12219 -0.5413,4.38457 -1.2645,10.29443 -1.607,13.13302 -0.3426,2.83859 -0.3304,6.32609 0.027,7.75 0.6346,2.52847 0.8419,2.58773 8.8807,2.53801 12.7759,-0.079 29.5971,-1.59316 31.0446,-2.79442 0.9774,-0.81121 1.2382,-4.22788 1.0328,-13.5306 -0.2549,-11.53883 -0.1144,-12.64936 1.9283,-15.24624 2.5408,-3.23017 6.0477,-11.18703 8.826,-20.02592 1.7833,-5.67313 2.2594,-6.27886 6.163,-7.84077 4.9087,-1.96405 5.6921,-2.92046 5.7429,-7.01114 0.021,-1.65 0.8571,-4.80471 1.8592,-7.01047 2.5101,-5.52536 11.8152,-16.48953 13.9943,-16.48953 1.3116,0 3.8468,4.1749 9.5244,15.68466 8.8423,17.92514 13.358,24.03944 28.2678,38.27461 6.7387,6.43383 10.2857,10.50269 9.6819,11.10644 -0.524,0.52404 -11.1474,3.84542 -23.6075,7.38084 -12.4602,3.53542 -24.8085,7.44091 -27.4408,8.67888 -4.7067,2.21355 -4.7371,2.25742 -1.8356,2.64845 1.6226,0.21869 6.4839,-0.11906 10.8027,-0.75056 5.0177,-0.73368 13.3389,-0.91124 23.0497,-0.49184 l 15.1972,0.65635 20.5,-4.47886 c 11.275,-2.46337 24.1,-5.02466 28.5,-5.69175 4.4,-0.66709 11.375,-1.84262 15.5,-2.61228 4.125,-0.76965 20.1,-1.92932 35.5,-2.57704 35.2857,-1.48411 65.1918,-0.32303 123.9445,4.81204 9.8694,0.8626 18.862,1.90781 19.9836,2.32269 2.0145,0.74524 2.0152,0.76174 0.056,1.37011 -5.5193,1.71341 -32.7801,5.08297 -54.4836,6.73442 -7.425,0.56498 -16.2,1.46793 -19.5,2.00655 -3.3,0.53862 -25.8,1.37317 -50,1.85456 -40.504,0.80571 -44.6754,1.0508 -52.5,3.08459 -15.2441,3.96228 -15.808,7.15518 -2.5,14.15704 11.6621,6.13593 19.7942,7.75891 27.56,5.50034 7.0214,-2.04209 8.5904,-3.30415 10.1572,-8.17024 l 1.288,-4 23.9974,-0.61843 c 13.1986,-0.34013 25.1534,-0.9395 26.5662,-1.33194 2.1896,-0.60818 2.999,-0.14784 5.4832,3.11843 1.6029,2.10757 4.0802,4.81779 5.5051,6.02271 1.425,1.20493 3.1621,4.09739 3.8602,6.42771 0.6982,2.33031 1.8853,5.17683 2.638,6.32559 0.7527,1.14877 2.0044,3.89091 2.7816,6.09364 0.7772,2.20274 2.5943,5.74567 4.0381,7.87318 1.4437,2.12751 2.625,4.95999 2.625,6.2944 0,4.52959 1.6836,5.90078 10.6974,8.71251 14.5014,4.52352 13.9858,4.07183 13.4017,11.74058 -0.1114,1.46211 0.4928,4.32242 1.3425,6.35624 2.4586,5.88408 1.0842,6.5463 -8.4523,4.07256 -7.6539,-1.98539 -9.1782,-0.99397 -8.7894,5.71648 0.2674,4.61601 0.6202,5.33253 3.2419,6.58451 2.6593,1.26991 3.3317,1.19841 7,-0.74444 5.2338,-2.77193 7.1433,-2.70655 9.1213,0.31229 1.9441,2.96699 1.346,4.13728 -3.0537,5.97561 -6.3192,2.6403 -8.1179,8.81699 -3.8195,13.11542 1.269,1.26902 2.8169,1.5637 6.2485,1.18957 5.3422,-0.58245 7.0616,-0.12071 7.0616,1.89637 0,0.80648 0.7235,2.86536 1.6077,4.5753 1.3825,2.67349 1.426,3.65939 0.3108,7.03862 -1.5057,4.56218 -0.5613,6.88065 3.1761,7.79798 1.9092,0.46859 2.3748,1.19526 2.2572,3.52274 -0.082,1.6128 -0.6328,4.16987 -1.2252,5.68237 l -1.0771,2.75 -209.0905,0 c -142.2191,0 -209.70916,-0.33107 -211.0248,-1.03518 -1.23387,-0.66035 -1.93426,-2.0917 -1.93426,-3.95295 0,-1.60477 -0.43464,-3.95144 -0.96586,-5.21482 -0.53122,-1.26338 -1.43738,-4.16801 -2.01368,-6.45473 -0.57631,-2.28673 -2.61667,-6.43838 -4.53415,-9.2259 -4.37679,-6.36273 -4.69745,-12.39954 -1.08025,-20.33678 1.32333,-2.9038 3.16104,-7.75464 4.08379,-10.77964 3.83377,-12.56802 8.12516,-19.12645 14.81013,-22.63395 3.90897,-2.05097 5.74468,-1.10974 9.19932,4.71682 3.52806,5.95037 11.31794,12.2799 18.44691,14.98869 3.07692,1.16914 8.50625,4.88317 13.78329,9.42871 4.78865,4.12485 9.03954,7.49973 9.44642,7.49973 0.40687,0 1.90489,1.98812 3.32892,4.41805 1.42403,2.42992 4.70552,6.09976 7.29212,8.1552 2.5867,2.05544 6.8067,5.95683 9.3778,8.66976 5.0362,5.31387 8.0785,5.973 8.6606,1.87633 0.23,-1.61875 -0.7519,-3.50048 -3.1254,-5.98979 -1.9033,-1.99625 -5.557,-6.85345 -8.1192,-10.79378 -5.5044,-8.46515 -11.1529,-13.86106 -15.51225,-14.81853 -5.63493,-1.23763 -7.79875,-7.75726 -6.35541,-19.14897 l 0.7769,-6.13174 8.29036,4.69638 c 7.5568,4.2808 9.238,4.81152 19,5.99772 9.4963,1.15391 11.4716,1.7527 17.4351,5.28524 7.2666,4.30449 12.3536,5.27915 14.0341,2.68891 1.646,-2.53705 0.2055,-5.84766 -6.2384,-14.33791 -3.3116,-4.36323 -6.0212,-8.52573 -6.0212,-9.25 0,-0.87533 1.3767,-1.31687 4.1057,-1.31687 2.9204,0 4.9633,-0.72172 7.0767,-2.5 3.394,-2.85588 8.8689,-3.34807 10.8389,-0.9744 1.0362,1.24857 0.923,2.16267 -0.6234,5.03417 l -1.8895,3.50857 4.6857,4.3022 c 2.7252,2.50214 4.9355,5.52129 5.2827,7.21583 1.1685,5.70322 2.047,7.72094 3.8359,8.81005 1.467,0.89313 2.164,0.67567 3.6554,-1.14035 1.4182,-1.72705 2.5108,-2.11029 4.7433,-1.66379 3.2766,0.6553 4.9072,-0.72025 5.4428,-4.59146 0.2654,-1.91765 1.2766,-2.79463 4.3458,-3.76892 5.0794,-1.61236 8.7116,-5.59295 8.3049,-9.10147 -0.2788,-2.40571 -0.6893,-2.63043 -4.8049,-2.63043 l -4.5,0 -0.5,-7.34023 c -0.4201,-6.16755 -0.8771,-7.64535 -2.8607,-9.25 -1.2985,-1.05038 -3.1836,-1.90977 -4.1892,-1.90977 -1.8384,0 -8.2726,-4.86201 -15.1554,-11.45217 -2.1602,-2.06838 -4.7159,-3.54783 -6.1287,-3.54783 -1.7465,0 -2.7683,-0.83284 -3.6585,-2.98204 -0.6794,-1.64012 -0.9913,-3.61767 -0.6932,-4.39456 0.537,-1.39923 5.9552,-3.38941 20.9357,-7.68993 4.2625,-1.22365 7.75,-2.60926 7.75,-3.07914 0,-1.14266 -0.5871,-1.08418 -7,0.69723 -3.025,0.84031 -11.575,2.82956 -19,4.42057 -26.0199,5.57546 -28.2407,6.11263 -37.3987,9.04623 -17.0628,5.46569 -17.6166,9.2141 -4.462,30.20389 5.448,8.69288 5.8958,10.24103 2.6656,9.21581 -6.2622,-1.98754 -11.8399,-6.73684 -16.0326,-13.65131 -5.94528,-9.80493 -6.62986,-10.0945 -12.05099,-5.09748 -6.26566,5.77549 -8.03605,6.11954 -12.28635,2.38773 -4.36483,-3.83237 -5.79811,-3.84331 -10.0877,-0.077 -3.85294,3.38293 -9.56271,4.06061 -12.90609,1.5318 -2.81613,-2.13001 -5.25985,-1.86212 -8.59224,0.9419 -1.61691,1.36053 -4.7072,2.9496 -6.86731,3.53126 -6.29945,1.69626 -9.81854,7.33773 -16.52736,26.49504 -2.31129,6.6 -4.91558,14.025 -5.7873,16.5 -6.08105,17.26541 -9.65967,30.80399 -9.66353,36.55887 -0.002,2.78547 -0.64125,5.93119 -1.42278,7 -1.38704,1.8969 -3.49379,1.94113 -92.45,1.94113 -73.28264,0 -91.28407,-0.25305 -92.33061,-1.29792 -0.96881,-0.96726 -1.3779,-6.94521 -1.60579,-23.46476 -0.19006,-13.77806 -0.70945,-22.65322 -1.37244,-23.45208 -1.75935,-2.11989 -4.26435,-1.55559 -21.15425,4.76536 -15.11356,5.65617 -52.30619,23.41974 -58.96945,28.1644 -1.7487,1.24518 -4.16591,4.74563 -5.86556,8.49413 -1.59008,3.50686 -3.66539,6.60662 -4.61178,6.88835 -7.46322,2.22169 -9.31689,6.14676 -6.85959,14.5249 2.36598,8.06676 8.23958,17.25852 16.88887,26.42985 9.42604,9.99497 9.89599,11.68246 2.64184,9.48623 z m 727.79471,-50.77913 c -0.2437,-0.41763 -0.7692,-4.35933 -1.1679,-8.75933 -0.3986,-4.4 -1.3975,-9.98981 -2.2197,-12.42179 -1.4406,-4.26111 -1.4145,-4.48244 0.7175,-6.09064 1.7752,-1.33904 2.0802,-2.27108 1.5431,-4.71629 -0.6019,-2.74034 -0.2103,-3.42358 3.8856,-6.77983 2.5052,-2.0528 4.5548,-4.58478 4.5548,-5.62661 0,-3.11037 -5.7126,-5.85685 -12.1909,-5.8611 -3.1301,-0.002 -5.9711,-0.45692 -6.3134,-1.0108 -1.0745,-1.7385 2.4881,-2.31438 6.6337,-1.07232 3.4091,1.02137 4.5088,0.93336 7.675,-0.61421 4.4576,-2.17885 5.5745,-6.74854 2.3604,-9.6573 -1.8425,-1.66744 -2.215,-1.65345 -8.017,0.3011 -12.2414,4.12385 -13.5422,2.25907 -4.6364,-6.64672 8.4551,-8.45515 11.4886,-12.44558 11.4886,-15.1127 0,-2.298 -2.6633,-4.19079 -5.8968,-4.19079 -2.9657,0 -12.2735,-7.96551 -14.6635,-12.54885 -2.5795,-4.94695 -10.4436,-9.18752 -14.435,-7.78383 -2.0228,0.71139 -2.5047,1.54877 -2.5047,4.3528 0,3.10123 0.4939,3.73934 4.6251,5.97592 6.0633,3.28265 17.8749,15.43825 17.8749,18.39549 0,2.53613 -4.7985,7.60847 -7.1977,7.60847 -1.9163,0 -2.8023,-2.04113 -2.8023,-6.45583 0,-3.16355 -3.6678,-11.1096 -6.8426,-14.82394 -1.057,-1.23667 -2.707,-1.70982 -5.407,-1.5505 -4.5059,0.26587 -4.8773,-0.15887 -7.8263,-8.94916 -1.9409,-5.78506 -2.4917,-6.47455 -6.9974,-8.75773 -5.5798,-2.82752 -7.733,-5.60521 -9.0636,-11.6926 -0.5133,-2.34863 -1.831,-5.50774 -2.9281,-7.02024 -1.5589,-2.14903 -1.6784,-2.75 -0.5467,-2.75 2.7977,0 4.6998,1.26956 6.1744,4.12118 1.8479,3.57347 3.9914,3.65209 7.1335,0.26166 l 2.4255,-2.61717 2.4,2.2547 c 2.1637,2.03262 2.702,2.12965 5.4651,0.9851 1.6858,-0.69828 4.0019,-2.58513 5.1468,-4.19299 2.5588,-3.59352 5.3535,-3.41318 8.2661,0.53342 l 2.1003,2.8459 -3.2777,2.75007 c -3.823,3.20761 -3.5394,5.26992 0.9825,7.14292 1.6835,0.69735 4.293,2.30461 5.7988,3.57169 1.5059,1.26708 4.9336,3.24303 7.6172,4.391 6.9502,2.9731 9.1217,5.39508 10.4126,11.61341 1.2944,6.23478 3.8705,8.54293 9.1387,8.18813 1.8721,-0.12607 3.9492,0.10788 4.6158,0.51989 1.7488,1.08078 1.547,13.89382 -0.2879,18.28533 -0.9127,2.18446 -1.5,6.74864 -1.5,11.65769 0,4.43722 -0.5417,10.69053 -1.2038,13.89623 -1.1157,5.40167 -1.0559,5.97654 0.8167,7.84914 1.174,1.17401 2.6875,1.76468 3.6123,1.40979 3.1583,-1.21196 3.5982,-4.2921 6.7781,-47.46709 0.88,-11.9491 0.097,-14.37982 -4.9933,-15.49782 -4.8989,-1.07597 -9.0182,-5.13972 -8.9619,-8.84107 0.074,-4.89703 3.01,-9.91736 6.3094,-10.78992 1.5716,-0.41563 3.691,-1.51002 4.7097,-2.43196 3.4128,-3.08856 8.9328,0.59304 8.9328,5.95778 0,0.7166 1.4004,3.23606 3.112,5.5988 2.9818,4.11625 3.0575,4.46074 1.8108,8.23832 -1.5102,4.57587 -0.5677,6.89534 3.1719,7.80636 2.2026,0.53659 2.3792,1.01297 2.0954,5.65301 -0.2718,4.44314 0.01,5.31613 2.2619,7.09004 3.1548,2.48155 6.3519,1.84613 7.1731,-1.42562 0.6887,-2.7443 -0.3026,-14.07807 -1.7069,-19.51369 -0.5195,-2.01067 -2.6649,-6.28567 -4.7676,-9.5 -5.3931,-8.24429 -10.1506,-16.24931 -10.1506,-17.07957 0,-0.38791 -2.2807,-4.42439 -5.0682,-8.96997 -2.7876,-4.54558 -4.8181,-8.66955 -4.5123,-9.16439 1.0963,-1.77385 7.3935,-1.89699 27.5805,-0.53934 11.275,0.75828 23.5448,1.38552 27.2662,1.39387 6.7536,0.0151 6.7693,0.0217 8.4492,3.5444 1.5821,3.31768 1.5772,4.05197 -0.081,12.25 -0.9705,4.79642 -3.7601,14.6126 -6.1992,21.81372 -4.8317,14.26496 -5.1933,16.53255 -2.9356,18.4063 1.196,0.99263 2.1135,0.98965 4.5382,-0.0147 5.1465,-2.13173 7.6616,-8.0467 12.18,-28.64445 4.4893,-20.46527 4.6935,-22.68848 2.6788,-29.15619 -1.3026,-4.18133 -1.2361,-4.52297 2.1297,-10.94141 4.9503,-9.44023 7.1804,-10.80227 17.1748,-10.48949 6.48,0.20281 8.6654,-0.12157 11.1771,-1.65901 3.8975,-2.38569 5.88819,-2.67409 11.88899,-1.7224 4.2596,0.67555 5.355,0.41941 10.2956,-2.40727 5.4763,-3.13324 5.5924,-3.15218 12.2332,-1.99479 7.6324,1.33021 17.8114,5.91876 21.2503,9.57934 2.2046,2.34671 2.2596,2.73437 1.0546,7.43623 -1.713,6.68377 -0.8314,9.7787 4.5962,16.1341 2.5274,2.95944 7.0063,10.41352 9.9531,16.56461 5.5111,11.50394 7.809,13.84015 11.0045,11.18814 2.5804,-2.14154 1.1248,-8.27697 -5.5078,-23.21644 -3.3806,-7.61446 -6.1465,-14.68613 -6.1465,-15.71481 0,-2.52336 2.6129,-3.7524 10.2885,-4.83939 3.5456,-0.50213 7.804,-1.61489 9.463,-2.4728 4.6861,-2.42326 36.2834,-10.18229 50.9556,-12.51264 7.2639,-1.15371 18.0294,-3.45175 23.9235,-5.10676 12.7656,-3.58453 19.8015,-3.93901 21.3343,-1.07485 0.6913,1.29171 1.0352,31.4577 1.0352,90.80887 0,75.17601 -0.2188,89.1738 -1.4193,90.81574 -1.393,1.9051 -4.2964,1.94594 -156.4353,2.20046 -85.25869,0.14264 -155.21519,-0.0824 -155.45889,-0.5 z M 156.84025,773.70474 c -0.33164,-1.2375 -0.60913,-77.43406 -0.61664,-169.32569 l -0.0136,-167.07568 -2.25,-2.05734 c -1.2375,-1.13154 -3.81493,-2.84951 -5.72762,-3.8177 -1.91269,-0.9682 -6.41269,-3.70499 -10,-6.08175 -4.03146,-2.67103 -8.84159,-4.85803 -12.59516,-5.72658 -8.08785,-1.87147 -10.77119,-3.36134 -9.89133,-5.49195 1.6657,-4.03353 1.53599,-5.37493 -0.92593,-9.57588 -3.39989,-5.80148 -3.29588,-8.74662 0.45997,-13.02429 3.67064,-4.18064 9.49343,-7.96103 10.91183,-7.08441 0.56003,0.34612 1.02246,2.74025 1.02762,5.32029 0.007,3.3716 0.8537,6.16318 3.01129,9.92532 3.50201,6.10637 4.84755,7.1031 15.26541,11.30801 10.91424,4.40526 10.69045,4.74496 10.8136,-16.41479 0.0548,-9.42016 0.40146,-18.25256 0.77031,-19.62756 0.46783,-1.744 2.32768,-3.314 6.15032,-5.1918 6.89018,-3.38467 9.55344,-3.52832 10.3494,-0.5582 0.98451,3.67365 0.72465,394.37163 -0.26403,396.97204 -0.86456,2.27397 -12.09897,9.77796 -14.63882,9.77796 -0.67848,0 -1.50494,-1.0125 -1.83657,-2.25 z m 376.36966,-30.49985 c 0,-3.83292 -1.9758,-6.3174 -6.0839,-7.64996 -3.8993,-1.26486 -5.3184,-4.60019 -1.9573,-4.60019 6.8393,0 11.7997,5.2704 10.5056,11.16226 -0.8507,3.87332 -2.4644,4.58566 -2.4644,1.08789 z M 1229.519,599.70474 c -0.4449,-0.6875 -1.034,-76.85 -1.309,-169.25 l -0.5,-168 -2.6702,-5.6965 c -3.4062,-7.26678 -10.3665,-14.22708 -17.6333,-17.63332 l -5.6965,-2.67018 -258.78659,-0.5 c -228.5799,-0.44164 -258.8972,-0.67509 -259.7347,-2 -0.5215,-0.825 -0.955,-2.5575 -0.9634,-3.85 -0.01,-1.33951 -1.5262,-3.8608 -3.5289,-5.86353 -3.4318,-3.43185 -3.6454,-3.49706 -9.1849,-2.80494 -3.1193,0.38973 -6.8257,1.20618 -8.2365,1.81435 -2.3105,0.99603 -1.9201,1.1621 3.9349,1.67358 7.3408,0.64128 10.5082,2.04181 11.2784,4.98698 0.9941,3.80159 -2.6302,6.72538 -9.9078,7.99272 -3.6566,0.63677 -16.2132,3.58328 -27.9035,6.5478 -25.1151,6.36889 -28.7371,6.8643 -29.266,4.00304 -0.2034,-1.1 -1.0928,-2.5625 -1.9765,-3.25 -2.3978,-1.86537 -13.4302,-1.49981 -24.2246,0.80267 -24.3138,5.18626 -35.8511,7.24175 -53,9.44247 -21.1932,2.71973 -54.65427,4.22627 -56.99996,2.56634 -1.31604,-0.9313 -1.31974,-1.17736 -0.0301,-2.00637 1.55074,-0.99689 23.01005,-8.0306 39.03016,-12.7929 7.8274,-2.32687 9.5,-3.17074 9.5,-4.79314 0,-1.93164 -1.1538,-1.97857 -60.7006,-2.46907 -42.74986,-0.35214 -61.03065,-0.83023 -61.81669,-1.61669 -1.33594,-1.33665 1.37281,-11.98557 3.65866,-14.38331 1.26644,-1.32842 46.92271,-1.5 399.14433,-1.5 430.49679,0 402.41819,-0.357 413.71439,5.26014 14.1084,7.01552 23.5826,18.21495 28.2967,33.44925 1.4663,4.73853 1.6928,18.28053 2.1702,129.7741 l 0.5331,124.48349 5.5,3.63073 c 3.025,1.9969 8.6348,5.60433 12.4662,8.01651 7.2057,4.53656 15.0716,11.94782 26.8825,25.32852 6.205,7.02975 6.7868,8.05495 6.1903,10.90812 -0.362,1.73203 -0.9985,6.52414 -1.4144,10.64914 -0.4158,4.125 -1.2836,8.4728 -1.9283,9.66178 -2.0147,3.71538 -9.3041,9.23484 -15.0211,11.37386 -8.9959,3.3658 -11.16,1.72913 -6.1022,-4.61489 4.6825,-5.87318 7.0367,-11.08397 7.6375,-16.90444 0.7596,-7.36004 -1.0359,-12.01512 -6.0298,-15.63265 -6.0449,-4.37885 -22.1219,-12.88366 -24.3546,-12.88366 -4.1116,0 -4.3262,1.34625 -4.3262,27.1349 0,13.6042 -0.4123,25.81932 -0.9162,27.14471 -0.6983,1.83667 -2.3193,2.80351 -6.8156,4.0651 -7.0749,1.98513 -7.9122,2.023 -8.9592,0.40529 z M 754.75801,571.04767 c -1.4036,-2.71426 -1.415,-3.09293 -0.093,-3.09293 0.8286,0 1.7942,1.14596 2.1458,2.54657 0.947,3.77324 -0.2233,4.08468 -2.053,0.54636 z m 16.155,-57.91723 c -5.3511,-4.63131 -9.2921,-5.79646 -14.1657,-4.18804 -4.887,1.61285 -11.8064,0.32448 -16.4938,-3.07109 -7.7359,-5.60383 -7.413,-8.28042 2.4564,-20.36454 8.2353,-10.08314 9.8357,-10.94184 17.7266,-9.51094 8.73,1.58304 12.6135,3.40807 13.7798,6.47564 2.4506,6.44546 0.3311,9.63368 -7.3362,11.03556 -7.0574,1.29038 -5.5331,6.11989 2.2616,7.16538 2.7716,0.37176 4.6622,1.28379 5.5415,2.6733 1.8292,2.89079 2.8851,10.14619 1.7673,12.14372 -0.7938,1.41843 -1.5407,1.10027 -5.5375,-2.35899 z m -186.7031,-83.65192 c -1.375,-0.7991 -3.7375,-1.46886 -5.25,-1.48834 -3.1771,-0.0409 -3.4068,-1.11486 -1.0806,-5.05278 1.8204,-3.08176 3.5641,-4.18811 10.2064,-6.47567 5.7617,-1.98431 8.4573,-1.90146 10.4693,0.32175 2.7276,3.01405 1.9745,5.66851 -2.6938,9.49377 -5.2368,4.29122 -8.3188,5.138 -11.6513,3.20127 z"
       id="path2831" />
  </g>
</svg>
